<svg id="svg" version="1.1" xmlns="http://www.w3.org/2000/svg" xmlns:xlink="http://www.w3.org/1999/xlink" width="400" height="400" viewBox="0, 0, 400,400"><g id="svgg"><path id="path0" d="M251.200 86.279 C 218.882 89.755,195.572 117.781,198.412 149.747 C 198.669 152.636,198.944 155.107,199.024 155.238 C 199.368 155.798,198.296 158.428,197.495 158.988 C 193.938 161.480,164.052 155.246,145.800 148.205 C 119.537 138.073,98.912 124.445,79.929 104.680 C 73.622 98.112,73.242 98.250,69.772 108.351 C 62.649 129.087,68.175 149.386,86.095 168.320 C 90.978 173.478,91.593 175.412,88.661 176.380 C 86.453 177.108,77.307 175.057,69.931 172.180 C 66.536 170.855,66.210 172.025,67.637 180.426 C 71.257 201.743,83.066 215.407,105.158 223.841 C 110.261 225.789,111.294 226.499,111.119 227.940 C 110.821 230.399,107.537 231.228,97.400 231.400 C 93.440 231.467,90.065 231.540,89.900 231.561 C 89.090 231.666,89.792 234.349,91.502 237.687 C 100.159 254.586,115.882 265.639,135.750 268.795 C 143.720 270.060,142.989 272.919,133.015 279.494 C 114.401 291.765,93.693 298.384,71.533 299.144 C 61.452 299.490,61.371 299.792,70.197 304.148 C 182.629 359.636,315.566 276.674,315.600 151.000 C 315.602 143.383,315.544 143.498,322.400 137.488 C 328.885 131.803,339.313 121.521,340.470 119.671 C 341.925 117.344,341.117 117.270,334.512 119.122 C 318.845 123.513,314.400 123.859,314.400 120.686 C 314.400 119.595,314.840 119.005,317.300 116.800 C 326.128 108.886,331.424 102.695,334.236 97.005 C 336.698 92.025,336.216 91.883,328.338 95.259 C 317.347 99.968,304.468 104.400,301.773 104.400 C 300.367 104.400,298.405 103.196,295.400 100.490 C 284.032 90.250,266.545 84.628,251.200 86.279 " stroke="none" fill="#fbfbfc" fill-rule="evenodd"></path><path id="path1" d="M0.000 200.000 L 0.000 400.000 200.000 400.000 L 400.000 400.000 400.000 200.000 L 400.000 0.000 200.000 0.000 L 0.000 0.000 0.000 200.000 M267.005 82.216 C 278.557 83.995,289.198 89.040,299.081 97.424 C 300.491 98.621,301.931 99.600,302.280 99.600 C 304.393 99.600,319.456 94.111,329.283 89.759 C 336.851 86.408,338.768 86.062,340.364 87.761 C 343.486 91.085,338.204 102.240,328.761 112.266 C 325.627 115.593,325.112 116.400,326.125 116.400 C 327.090 116.400,332.944 114.776,338.590 112.941 C 356.124 107.244,350.440 119.529,325.756 140.677 C 323.019 143.022,320.706 145.314,320.615 145.770 C 320.524 146.227,320.257 151.370,320.022 157.200 C 314.861 285.018,181.058 364.487,66.773 307.611 C 53.521 301.016,50.777 298.572,53.186 295.509 C 54.346 294.034,55.560 293.895,63.209 294.360 C 85.158 295.693,107.263 289.821,128.061 277.132 C 134.090 273.454,134.091 273.405,128.215 271.957 C 110.351 267.555,95.305 255.655,87.133 239.467 C 81.833 228.968,82.949 226.230,92.423 226.481 C 97.148 226.606,98.355 226.175,96.006 225.203 C 79.956 218.554,66.600 201.076,63.185 182.253 C 60.524 167.585,62.493 163.724,70.777 167.366 C 73.959 168.765,78.844 170.400,79.842 170.400 C 80.931 170.400,80.365 169.257,77.542 165.750 C 61.981 146.423,58.105 125.268,66.300 104.400 C 71.294 91.684,73.677 90.982,81.800 99.839 C 108.520 128.972,145.987 148.216,187.652 154.208 C 194.428 155.183,193.728 156.231,193.802 145.000 C 194.067 104.932,227.624 76.151,267.005 82.216 " stroke="none" fill="#54acf4" fill-rule="evenodd"></path><path id="path2" d="M250.270 84.822 C 217.373 88.646,194.482 116.629,196.868 150.103 C 197.504 159.014,197.657 158.920,185.600 157.022 C 144.910 150.615,111.199 133.782,83.702 106.142 C 73.644 96.031,73.623 96.023,70.970 101.259 C 59.879 123.147,64.901 148.102,84.641 169.192 C 88.588 173.408,88.820 174.800,85.578 174.800 C 83.398 174.800,75.359 172.650,71.380 171.003 C 65.816 168.700,64.905 169.303,65.344 175.004 C 67.144 198.431,80.290 215.756,103.122 224.793 C 111.516 228.115,109.420 229.706,96.539 229.788 C 86.733 229.851,86.362 230.114,88.689 235.350 C 96.984 254.017,113.896 266.844,134.600 270.175 C 140.915 271.191,140.005 273.320,130.778 279.115 C 111.302 291.348,92.627 297.003,70.106 297.486 C 55.882 297.791,55.578 298.512,67.199 304.384 C 180.432 361.599,313.718 281.692,317.041 154.600 C 317.342 143.080,316.750 144.382,324.921 137.279 C 334.441 129.004,342.989 120.060,344.054 117.258 C 344.936 114.938,343.366 114.723,338.041 116.436 C 327.383 119.865,318.690 121.514,317.682 120.299 C 317.017 119.497,317.789 118.532,323.534 112.986 C 333.175 103.677,339.646 92.996,336.984 90.787 C 336.211 90.145,335.744 90.299,327.400 93.928 C 317.806 98.101,304.408 102.800,302.103 102.800 C 300.768 102.800,299.862 102.247,296.505 99.383 C 283.335 88.146,266.714 82.911,250.270 84.822 M264.499 86.588 C 276.178 88.142,287.193 93.098,295.400 100.490 C 298.405 103.196,300.367 104.400,301.773 104.400 C 304.468 104.400,317.347 99.968,328.338 95.259 C 336.216 91.883,336.698 92.025,334.236 97.005 C 331.424 102.695,326.128 108.886,317.300 116.800 C 314.840 119.005,314.400 119.595,314.400 120.686 C 314.400 123.859,318.845 123.513,334.512 119.122 C 341.117 117.270,341.925 117.344,340.470 119.671 C 339.313 121.521,328.885 131.803,322.400 137.488 C 315.544 143.498,315.602 143.383,315.600 151.000 C 315.580 224.968,267.667 290.716,197.290 313.346 C 155.626 326.743,109.168 323.381,70.197 304.148 C 61.371 299.792,61.452 299.490,71.533 299.144 C 93.693 298.384,114.401 291.765,133.015 279.494 C 142.989 272.919,143.720 270.060,135.750 268.795 C 115.882 265.639,100.159 254.586,91.502 237.687 C 89.792 234.349,89.090 231.666,89.900 231.561 C 90.065 231.540,93.440 231.467,97.400 231.400 C 107.537 231.228,110.821 230.399,111.119 227.940 C 111.294 226.499,110.261 225.789,105.158 223.841 C 83.066 215.407,71.257 201.743,67.637 180.426 C 66.210 172.025,66.536 170.855,69.931 172.180 C 77.307 175.057,86.453 177.108,88.661 176.380 C 91.593 175.412,90.978 173.478,86.095 168.320 C 68.175 149.386,62.649 129.087,69.772 108.351 C 73.242 98.250,73.622 98.112,79.929 104.680 C 98.912 124.445,119.537 138.073,145.800 148.205 C 164.052 155.246,193.938 161.480,197.495 158.988 C 198.296 158.428,199.368 155.798,199.024 155.238 C 198.944 155.107,198.669 152.636,198.412 149.747 C 195.103 112.502,227.388 81.648,264.499 86.588 " stroke="none" fill="#bedffc" fill-rule="evenodd"></path><path id="path3" d="M247.971 84.187 C 214.468 89.650,192.835 118.145,196.133 152.469 C 196.609 157.418,196.345 157.573,189.084 156.619 C 148.353 151.266,112.193 133.581,84.070 105.257 C 73.591 94.703,73.318 94.616,70.193 100.816 C 59.040 122.943,63.859 147.877,83.405 169.175 C 84.961 170.871,85.992 172.332,85.911 172.728 C 85.593 174.299,79.058 173.044,70.909 169.848 C 66.572 168.147,66.797 168.172,65.454 169.229 C 62.624 171.455,65.554 187.578,70.626 197.695 C 77.036 210.479,85.971 218.285,102.724 225.736 C 107.739 227.967,105.577 228.882,95.349 228.857 C 85.781 228.834,85.057 229.481,87.809 235.600 C 96.031 253.889,110.841 265.779,131.143 270.392 C 138.711 272.111,138.825 272.763,132.316 277.056 C 112.305 290.250,92.081 296.417,68.124 296.630 C 56.936 296.729,56.800 296.748,56.800 298.194 C 56.800 301.923,82.991 313.656,102.200 318.533 C 211.052 346.171,318.000 263.788,318.000 152.302 C 318.000 144.299,317.946 144.417,323.913 139.385 C 329.825 134.400,342.208 122.040,343.929 119.408 C 347.332 114.202,345.677 112.971,338.465 115.343 C 332.140 117.423,323.404 119.600,321.379 119.600 C 318.643 119.600,319.045 118.805,324.500 113.428 C 334.618 103.453,341.142 91.953,337.890 89.822 C 336.636 89.001,335.773 89.201,331.026 91.416 C 323.995 94.696,308.121 100.626,303.719 101.616 C 301.504 102.115,300.824 101.810,297.000 98.603 C 283.031 86.886,264.620 81.473,247.971 84.187 M263.116 84.819 C 275.634 86.169,286.651 90.975,296.505 99.383 C 299.862 102.247,300.768 102.800,302.103 102.800 C 304.408 102.800,317.806 98.101,327.400 93.928 C 335.744 90.299,336.211 90.145,336.984 90.787 C 339.646 92.996,333.175 103.677,323.534 112.986 C 317.789 118.532,317.017 119.497,317.682 120.299 C 318.690 121.514,327.383 119.865,338.041 116.436 C 343.366 114.723,344.936 114.938,344.054 117.258 C 342.989 120.060,334.441 129.004,324.921 137.279 C 316.750 144.382,317.342 143.080,317.041 154.600 C 313.718 281.692,180.432 361.599,67.199 304.384 C 55.578 298.512,55.882 297.791,70.106 297.486 C 92.627 297.003,111.302 291.348,130.778 279.115 C 140.005 273.320,140.915 271.191,134.600 270.175 C 113.896 266.844,96.984 254.017,88.689 235.350 C 86.362 230.114,86.733 229.851,96.539 229.788 C 109.420 229.706,111.516 228.115,103.122 224.793 C 80.290 215.756,67.144 198.431,65.344 175.004 C 64.905 169.303,65.816 168.700,71.380 171.003 C 75.359 172.650,83.398 174.800,85.578 174.800 C 88.820 174.800,88.588 173.408,84.641 169.192 C 64.901 148.102,59.879 123.147,70.970 101.259 C 73.623 96.023,73.644 96.031,83.702 106.142 C 111.199 133.782,144.910 150.615,185.600 157.022 C 197.657 158.920,197.504 159.014,196.868 150.103 C 194.124 111.608,225.433 80.754,263.116 84.819 " stroke="none" fill="#95ccf4" fill-rule="evenodd"></path><path id="path4" d="M251.200 83.232 C 218.031 86.385,194.396 113.546,195.319 147.451 C 195.598 157.665,196.175 157.136,186.400 155.612 C 145.311 149.202,112.041 132.581,84.128 104.518 C 73.569 93.902,72.884 93.719,69.582 100.638 C 59.114 122.572,62.743 145.662,79.846 165.940 C 84.777 171.786,84.887 171.935,84.612 172.380 C 83.990 173.387,76.384 171.618,71.063 169.229 C 64.355 166.218,62.733 168.381,64.188 178.400 C 67.323 199.989,78.142 214.684,97.932 224.233 C 105.380 227.826,104.549 228.662,93.948 228.242 C 85.094 227.891,84.155 229.323,87.948 237.400 C 96.001 254.545,111.196 266.421,130.930 270.996 C 137.514 272.522,137.519 272.957,130.992 277.184 C 110.327 290.572,88.205 296.761,63.400 296.096 C 50.955 295.762,52.054 298.527,67.400 306.156 C 180.923 362.589,313.320 283.820,318.441 156.800 C 318.975 143.544,318.610 144.630,324.100 139.984 C 336.450 129.534,346.400 118.587,346.400 115.448 C 346.400 112.806,344.716 112.666,338.235 114.769 C 331.971 116.801,324.172 118.800,322.509 118.800 C 320.388 118.800,320.875 117.951,325.900 112.890 C 335.710 103.011,341.743 91.744,338.562 89.242 C 337.127 88.113,337.006 88.144,328.600 91.800 C 316.047 97.261,303.467 101.554,301.481 101.056 C 300.913 100.913,299.311 99.795,297.924 98.571 C 285.107 87.267,267.963 81.639,251.200 83.232 M268.139 84.583 C 278.418 86.494,288.269 91.279,297.000 98.603 C 300.824 101.810,301.504 102.115,303.719 101.616 C 308.121 100.626,323.995 94.696,331.026 91.416 C 335.773 89.201,336.636 89.001,337.890 89.822 C 341.142 91.953,334.618 103.453,324.500 113.428 C 319.045 118.805,318.643 119.600,321.379 119.600 C 323.404 119.600,332.140 117.423,338.465 115.343 C 345.677 112.971,347.332 114.202,343.929 119.408 C 342.208 122.040,329.825 134.400,323.913 139.385 C 317.946 144.417,318.000 144.299,318.000 152.302 C 318.000 263.788,211.052 346.171,102.200 318.533 C 82.991 313.656,56.800 301.923,56.800 298.194 C 56.800 296.748,56.936 296.729,68.124 296.630 C 92.081 296.417,112.305 290.250,132.316 277.056 C 138.825 272.763,138.711 272.111,131.143 270.392 C 110.841 265.779,96.031 253.889,87.809 235.600 C 85.057 229.481,85.781 228.834,95.349 228.857 C 105.577 228.882,107.739 227.967,102.724 225.736 C 85.971 218.285,77.036 210.479,70.626 197.695 C 65.554 187.578,62.624 171.455,65.454 169.229 C 66.797 168.172,66.572 168.147,70.909 169.848 C 79.058 173.044,85.593 174.299,85.911 172.728 C 85.992 172.332,84.961 170.871,83.405 169.175 C 63.859 147.877,59.040 122.943,70.193 100.816 C 73.318 94.616,73.591 94.703,84.070 105.257 C 112.193 133.581,148.353 151.266,189.084 156.619 C 196.345 157.573,196.609 157.418,196.133 152.469 C 192.078 110.267,227.363 77.001,268.139 84.583 " stroke="none" fill="#7cc4f4" fill-rule="evenodd"></path><path id="path5" d="M248.330 83.010 C 215.875 87.437,191.975 117.122,194.768 149.536 C 195.385 156.693,195.701 156.386,188.707 155.435 C 148.045 149.906,112.759 132.563,84.769 104.350 C 73.089 92.578,72.269 92.528,67.827 103.328 C 58.811 125.250,62.820 146.333,79.930 166.974 C 81.925 169.379,83.465 171.494,83.354 171.674 C 82.798 172.574,77.281 171.214,71.095 168.651 C 63.366 165.450,61.870 168.036,64.037 180.850 C 67.373 200.572,78.654 215.545,96.730 224.243 C 103.249 227.380,102.367 228.197,92.934 227.759 L 87.268 227.496 86.182 228.581 C 84.611 230.152,84.986 232.447,87.742 238.122 C 96.052 255.236,110.502 266.526,130.321 271.392 C 136.096 272.810,136.129 273.154,130.828 276.667 C 111.705 289.340,91.767 295.255,67.731 295.385 C 54.701 295.456,54.400 295.505,54.400 297.571 C 54.400 302.085,81.980 314.765,103.096 319.959 C 211.455 346.610,316.281 266.631,319.040 155.200 C 319.312 144.224,319.025 144.983,324.724 140.173 C 334.747 131.713,346.230 119.410,347.013 116.292 C 347.940 112.599,344.814 111.564,339.473 113.795 C 337.143 114.769,325.194 118.000,323.924 118.000 C 322.066 118.000,322.569 117.058,326.643 112.912 C 338.093 101.256,343.778 88.000,337.325 88.000 C 336.510 88.000,332.924 89.328,328.287 91.348 C 321.076 94.488,309.826 98.709,304.757 100.175 C 301.926 100.994,301.300 100.768,297.516 97.561 C 283.627 85.794,266.048 80.594,248.330 83.010 M261.940 83.209 C 275.393 84.400,287.918 89.747,297.924 98.571 C 299.311 99.795,300.913 100.913,301.481 101.056 C 303.467 101.554,316.047 97.261,328.600 91.800 C 337.006 88.144,337.127 88.113,338.562 89.242 C 341.743 91.744,335.710 103.011,325.900 112.890 C 320.875 117.951,320.388 118.800,322.509 118.800 C 324.172 118.800,331.971 116.801,338.235 114.769 C 344.716 112.666,346.400 112.806,346.400 115.448 C 346.400 118.587,336.450 129.534,324.100 139.984 C 318.610 144.630,318.975 143.544,318.441 156.800 C 313.320 283.820,180.923 362.589,67.400 306.156 C 52.054 298.527,50.955 295.762,63.400 296.096 C 88.205 296.761,110.327 290.572,130.992 277.184 C 137.519 272.957,137.514 272.522,130.930 270.996 C 111.196 266.421,96.001 254.545,87.948 237.400 C 84.155 229.323,85.094 227.891,93.948 228.242 C 104.549 228.662,105.380 227.826,97.932 224.233 C 78.142 214.684,67.323 199.989,64.188 178.400 C 62.733 168.381,64.355 166.218,71.063 169.229 C 76.384 171.618,83.990 173.387,84.612 172.380 C 84.887 171.935,84.777 171.786,79.846 165.940 C 62.743 145.662,59.114 122.572,69.582 100.638 C 72.884 93.719,73.569 93.902,84.128 104.518 C 112.041 132.581,145.311 149.202,186.400 155.612 C 196.175 157.136,195.598 157.665,195.319 147.451 C 194.346 111.711,220.225 84.163,256.000 82.858 C 256.770 82.830,259.443 82.988,261.940 83.209 " stroke="none" fill="#70baf4" fill-rule="evenodd"></path><path id="path6" d="M247.399 82.568 C 214.336 88.009,190.311 118.879,194.303 150.791 C 194.919 155.716,194.979 155.672,188.800 154.892 C 149.312 149.906,112.940 131.996,84.931 103.745 C 76.110 94.849,75.735 94.557,73.400 94.787 C 71.134 95.010,68.342 99.699,65.611 107.872 C 58.997 127.668,63.375 147.397,78.528 166.081 C 83.900 172.703,83.714 172.723,68.499 167.158 C 63.707 165.405,61.967 168.064,62.815 175.845 C 65.268 198.354,75.866 214.111,95.340 224.204 C 100.378 226.815,100.232 227.000,93.129 227.000 C 83.390 227.000,82.504 228.879,87.544 238.847 C 96.135 255.840,109.635 266.520,128.966 271.620 C 135.276 273.284,135.267 273.375,128.400 277.571 C 108.123 289.958,90.472 294.909,66.362 294.971 C 54.357 295.001,53.953 295.059,53.395 296.816 C 51.996 301.222,77.350 313.616,100.400 319.795 C 208.423 348.750,317.055 267.723,319.461 156.400 C 319.719 144.446,319.358 145.413,325.515 140.155 C 337.939 129.543,347.245 119.297,347.851 115.563 C 348.429 112.002,345.310 111.114,339.521 113.192 C 335.416 114.666,326.192 117.200,324.932 117.200 C 323.421 117.200,323.800 116.564,327.743 112.478 C 338.752 101.073,344.048 88.471,338.286 87.390 C 336.742 87.100,335.860 87.402,327.800 90.980 C 318.359 95.171,304.760 100.000,302.399 100.000 C 301.608 100.000,300.364 99.232,298.141 97.373 C 283.666 85.264,264.681 79.725,247.399 82.568 M264.809 82.976 C 277.183 84.624,287.870 89.389,297.516 97.561 C 301.300 100.768,301.926 100.994,304.757 100.175 C 309.826 98.709,321.076 94.488,328.287 91.348 C 332.924 89.328,336.510 88.000,337.325 88.000 C 343.778 88.000,338.093 101.256,326.643 112.912 C 322.569 117.058,322.066 118.000,323.924 118.000 C 325.194 118.000,337.143 114.769,339.473 113.795 C 344.814 111.564,347.940 112.599,347.013 116.292 C 346.230 119.410,334.747 131.713,324.724 140.173 C 319.025 144.983,319.312 144.224,319.040 155.200 C 316.281 266.631,211.455 346.610,103.096 319.959 C 81.980 314.765,54.400 302.085,54.400 297.571 C 54.400 295.505,54.701 295.456,67.731 295.385 C 91.767 295.255,111.705 289.340,130.828 276.667 C 136.129 273.154,136.096 272.810,130.321 271.392 C 110.502 266.526,96.052 255.236,87.742 238.122 C 84.986 232.447,84.611 230.152,86.182 228.581 L 87.268 227.496 92.934 227.759 C 102.367 228.197,103.249 227.380,96.730 224.243 C 78.654 215.545,67.373 200.572,64.037 180.850 C 61.870 168.036,63.366 165.450,71.095 168.651 C 77.281 171.214,82.798 172.574,83.354 171.674 C 83.465 171.494,81.925 169.379,79.930 166.974 C 62.820 146.333,58.811 125.250,67.827 103.328 C 72.269 92.528,73.089 92.578,84.769 104.350 C 112.759 132.563,148.045 149.906,188.707 155.435 C 195.701 156.386,195.385 156.693,194.768 149.536 C 191.411 110.578,225.907 77.796,264.809 82.976 " stroke="none" fill="#64b4f4" fill-rule="evenodd"></path><path id="path7" d="M245.851 82.406 C 214.902 88.027,193.873 113.563,193.813 145.595 C 193.793 156.070,194.359 155.143,188.437 154.404 C 148.423 149.406,106.769 128.089,81.500 99.676 C 74.671 91.998,72.002 92.103,68.173 100.200 C 57.727 122.287,60.939 144.780,77.500 165.534 C 79.315 167.809,80.800 169.858,80.800 170.089 C 80.800 170.905,77.100 170.003,71.942 167.931 C 62.375 164.088,60.570 166.934,63.171 181.759 C 66.396 200.135,77.032 214.895,93.372 223.667 C 98.967 226.672,98.901 226.991,92.755 226.664 C 83.421 226.167,82.093 228.549,86.543 237.804 C 94.951 255.290,108.950 266.783,127.919 271.774 C 133.740 273.306,133.822 273.542,129.509 276.369 C 109.976 289.172,83.677 296.214,62.000 294.445 C 54.416 293.826,52.800 294.385,52.800 297.626 C 52.800 299.924,56.031 302.216,67.000 307.699 C 118.181 333.283,180.013 331.967,229.818 304.234 C 283.752 274.202,318.596 217.371,319.845 157.400 C 320.119 144.224,319.375 146.137,326.725 139.709 C 332.277 134.852,340.742 126.510,344.346 122.344 C 348.809 117.184,349.637 112.789,346.361 111.646 C 344.883 111.131,344.483 111.208,338.200 113.213 C 324.886 117.461,323.870 117.402,328.345 112.641 C 340.334 99.887,345.019 86.800,337.595 86.800 C 336.453 86.800,334.530 87.458,331.277 88.960 C 319.520 94.390,303.918 99.973,301.927 99.462 C 301.417 99.332,299.560 98.017,297.800 96.541 C 283.399 84.466,263.828 79.140,245.851 82.406 M269.680 83.171 C 280.053 85.409,289.437 90.091,298.141 97.373 C 300.364 99.232,301.608 100.000,302.399 100.000 C 304.760 100.000,318.359 95.171,327.800 90.980 C 335.860 87.402,336.742 87.100,338.286 87.390 C 344.048 88.471,338.752 101.073,327.743 112.478 C 323.800 116.564,323.421 117.200,324.932 117.200 C 326.192 117.200,335.416 114.666,339.521 113.192 C 345.310 111.114,348.429 112.002,347.851 115.563 C 347.245 119.297,337.939 129.543,325.515 140.155 C 319.358 145.413,319.719 144.446,319.461 156.400 C 317.055 267.723,208.423 348.750,100.400 319.795 C 77.350 313.616,51.996 301.222,53.395 296.816 C 53.953 295.059,54.357 295.001,66.362 294.971 C 90.472 294.909,108.123 289.958,128.400 277.571 C 135.267 273.375,135.276 273.284,128.966 271.620 C 109.635 266.520,96.135 255.840,87.544 238.847 C 82.504 228.879,83.390 227.000,93.129 227.000 C 100.232 227.000,100.378 226.815,95.340 224.204 C 75.866 214.111,65.268 198.354,62.815 175.845 C 61.967 168.064,63.707 165.405,68.499 167.158 C 83.714 172.723,83.900 172.703,78.528 166.081 C 63.375 147.397,58.997 127.668,65.611 107.872 C 68.342 99.699,71.134 95.010,73.400 94.787 C 75.735 94.557,76.110 94.849,84.931 103.745 C 112.940 131.996,149.312 149.906,188.800 154.892 C 194.979 155.672,194.919 155.716,194.303 150.791 C 189.211 110.089,228.998 74.396,269.680 83.171 " stroke="none" fill="#5cb4f4" fill-rule="evenodd"></path><path id="path8" d="M255.700 81.487 C 256.305 81.578,257.295 81.578,257.900 81.487 C 258.505 81.395,258.010 81.320,256.800 81.320 C 255.590 81.320,255.095 81.395,255.700 81.487 M211.785 100.100 L 209.800 102.200 211.900 100.215 C 213.851 98.371,214.183 98.000,213.885 98.000 C 213.822 98.000,212.877 98.945,211.785 100.100 M87.200 105.800 C 87.946 106.570,88.647 107.200,88.757 107.200 C 88.867 107.200,88.346 106.570,87.600 105.800 C 86.854 105.030,86.153 104.400,86.043 104.400 C 85.933 104.400,86.454 105.030,87.200 105.800 M338.786 128.300 L 336.600 130.600 338.900 128.414 C 341.037 126.382,341.383 126.000,341.086 126.000 C 341.024 126.000,339.989 127.035,338.786 128.300 M320.146 150.600 C 320.147 152.800,320.214 153.649,320.295 152.487 C 320.376 151.324,320.376 149.524,320.293 148.487 C 320.211 147.449,320.145 148.400,320.146 150.600 M98.383 255.300 C 99.364 256.345,100.219 257.200,100.283 257.200 C 100.584 257.200,100.266 256.841,98.500 255.183 L 96.600 253.400 98.383 255.300 M65.100 294.682 C 65.595 294.778,66.405 294.778,66.900 294.682 C 67.395 294.587,66.990 294.509,66.000 294.509 C 65.010 294.509,64.605 294.587,65.100 294.682 M144.900 326.276 C 145.285 326.376,145.915 326.376,146.300 326.276 C 146.685 326.175,146.370 326.093,145.600 326.093 C 144.830 326.093,144.515 326.175,144.900 326.276 " stroke="none" fill="#5cacf4" fill-rule="evenodd"></path></g></svg>