<svg id="svg" version="1.1" xmlns="http://www.w3.org/2000/svg" xmlns:xlink="http://www.w3.org/1999/xlink" width="400" height="400" viewBox="0, 0, 400,400"><g id="svgg"><path id="path0" d="M191.872 50.211 C 188.392 50.491,184.432 50.905,183.072 51.132 C 181.712 51.359,179.250 51.745,177.600 51.990 C 143.295 57.092,108.493 78.291,86.039 107.764 C 75.459 121.650,66.581 139.361,62.160 155.400 C 61.614 157.380,60.891 159.990,60.554 161.200 C 59.766 164.023,58.259 172.382,57.342 179.015 C 56.792 182.992,56.622 186.903,56.613 195.800 C 56.600 207.589,56.851 210.920,58.464 220.400 C 59.850 228.540,59.932 228.966,60.542 231.200 C 64.285 244.901,67.838 254.156,73.288 264.400 C 77.525 272.363,77.272 271.718,76.839 273.445 C 76.624 274.300,73.498 283.730,69.890 294.400 C 54.655 339.463,51.448 349.181,51.721 349.455 C 51.880 349.613,53.043 349.427,54.305 349.040 C 57.946 347.925,71.361 343.649,76.400 341.997 C 78.930 341.168,83.430 339.730,86.400 338.801 C 89.370 337.872,93.600 336.518,95.800 335.791 C 98.000 335.064,102.770 333.533,106.400 332.388 C 110.030 331.243,114.530 329.802,116.400 329.187 C 118.270 328.571,122.467 327.224,125.726 326.195 L 131.652 324.322 136.726 326.822 C 150.086 333.403,167.204 339.007,178.800 340.597 C 201.500 343.708,218.666 342.927,239.400 337.837 C 246.980 335.977,256.786 332.461,264.590 328.805 C 266.474 327.922,268.081 327.200,268.162 327.200 C 268.381 327.200,277.069 322.291,279.600 320.737 C 311.015 301.453,334.822 269.453,344.131 234.000 C 349.858 212.187,350.415 185.082,345.560 164.400 C 345.121 162.530,344.487 159.830,344.151 158.400 C 342.413 151.000,338.185 139.956,333.431 130.400 C 307.198 77.666,250.417 45.502,191.872 50.211 M210.800 73.997 C 248.292 76.489,282.964 96.385,303.865 127.400 C 312.824 140.694,317.709 151.604,321.596 167.000 C 322.731 171.493,323.039 173.136,324.259 181.200 C 325.224 187.574,325.229 204.704,324.268 211.000 C 323.898 213.420,323.404 216.660,323.168 218.200 C 321.333 230.209,314.688 247.796,307.828 258.800 C 276.061 309.760,215.698 331.429,161.450 311.346 C 159.883 310.766,157.880 310.037,157.000 309.727 C 154.399 308.810,142.684 302.904,139.937 301.125 C 135.458 298.224,135.791 298.246,129.200 300.401 C 126.010 301.444,120.430 303.237,116.800 304.385 C 109.257 306.770,99.419 309.943,94.307 311.640 C 88.146 313.685,88.123 313.646,90.827 305.777 C 91.957 302.490,93.120 298.990,93.412 298.000 C 94.026 295.921,97.708 284.904,101.137 274.883 L 103.504 267.966 100.829 263.883 C 96.618 257.456,93.317 251.348,89.976 243.800 C 88.454 240.361,85.920 233.067,84.627 228.400 C 83.782 225.350,83.348 223.406,81.994 216.600 C 79.888 206.017,79.884 185.322,81.985 175.827 C 82.184 174.932,82.557 173.030,82.815 171.600 C 85.587 156.243,92.816 139.912,103.883 124.000 C 119.274 101.872,149.531 81.905,175.400 76.805 C 176.720 76.545,178.970 76.090,180.400 75.794 C 189.495 73.913,200.099 73.286,210.800 73.997 M151.000 124.963 C 147.962 125.713,146.489 126.637,143.046 129.958 C 126.234 146.171,125.454 169.290,140.871 194.400 C 154.213 216.130,167.315 231.649,182.000 243.118 C 183.430 244.235,185.120 245.554,185.755 246.050 C 193.830 252.355,211.161 260.679,227.712 266.203 C 237.965 269.626,241.803 269.900,252.000 267.942 C 262.906 265.848,273.680 257.352,276.395 248.705 C 280.499 235.633,280.183 234.577,270.600 229.329 C 267.520 227.643,264.280 225.867,263.400 225.384 C 245.056 215.316,240.723 214.009,238.318 217.817 C 235.804 221.799,224.308 233.827,222.624 234.238 C 217.667 235.447,195.976 221.983,185.865 211.421 C 181.685 207.055,172.400 195.244,172.400 194.293 C 172.400 194.176,171.746 193.117,170.947 191.940 C 165.602 184.066,165.674 183.270,172.411 175.727 C 177.591 169.928,180.400 165.570,180.400 163.332 C 180.400 162.548,178.000 155.730,175.003 148.000 C 174.704 147.230,173.983 145.250,173.401 143.600 C 172.819 141.950,171.921 139.520,171.405 138.200 C 170.889 136.880,169.885 134.218,169.175 132.285 C 168.357 130.061,167.345 128.165,166.418 127.120 L 164.953 125.470 160.177 125.155 C 157.550 124.982,154.860 124.757,154.200 124.655 C 153.540 124.553,152.100 124.692,151.000 124.963 " stroke="none" fill="#f9faf8" fill-rule="evenodd"></path><path id="path1" d="M0.000 200.000 L 0.000 400.000 200.000 400.000 L 400.000 400.000 400.000 200.000 L 400.000 0.000 200.000 0.000 L 0.000 0.000 0.000 200.000 M220.000 49.186 C 227.342 50.175,231.791 50.966,236.000 52.031 C 236.770 52.226,238.660 52.674,240.200 53.026 C 242.733 53.605,245.212 54.350,247.400 55.192 C 247.840 55.362,249.256 55.808,250.547 56.185 C 251.837 56.562,254.328 57.485,256.082 58.235 C 257.836 58.986,259.422 59.600,259.608 59.600 C 260.207 59.600,269.307 63.885,273.000 65.906 C 276.903 68.041,282.239 71.304,285.000 73.243 C 286.540 74.325,288.700 75.840,289.800 76.610 C 295.272 80.443,300.718 85.076,306.453 90.778 C 323.622 107.848,336.295 128.353,343.180 150.200 C 345.783 158.462,346.420 160.873,347.409 166.200 C 347.981 169.280,348.634 172.610,348.862 173.600 C 350.786 181.983,350.863 207.208,348.996 217.600 C 348.700 219.250,348.247 221.860,347.990 223.400 C 346.788 230.600,345.109 236.623,341.020 248.413 C 337.214 259.384,327.495 276.853,319.996 286.200 C 319.113 287.300,317.695 289.100,316.844 290.200 C 313.288 294.796,302.305 305.739,296.941 310.031 C 287.341 317.712,281.112 321.882,272.000 326.727 C 268.277 328.707,264.061 330.800,263.794 330.800 C 263.669 330.800,262.449 331.321,261.083 331.958 C 257.127 333.804,250.771 336.110,244.800 337.866 C 243.590 338.222,242.150 338.659,241.600 338.838 C 239.074 339.658,235.342 340.459,230.600 341.197 C 229.500 341.369,227.610 341.701,226.400 341.935 C 221.387 342.905,219.072 343.190,212.600 343.633 C 205.495 344.118,192.674 343.880,187.200 343.161 C 185.550 342.944,183.030 342.616,181.600 342.431 C 180.170 342.246,177.920 341.879,176.600 341.615 C 175.280 341.351,173.210 340.946,172.000 340.716 C 167.258 339.810,155.742 336.587,152.930 335.378 C 152.088 335.016,150.230 334.308,148.800 333.805 C 145.637 332.691,141.089 330.629,135.956 327.982 C 131.319 325.591,132.045 325.607,125.526 327.753 C 119.093 329.871,111.268 332.389,102.400 335.193 C 98.770 336.341,94.270 337.788,92.400 338.409 C 90.530 339.029,87.650 339.932,86.000 340.415 C 84.350 340.897,81.830 341.707,80.400 342.215 C 78.970 342.723,76.720 343.429,75.400 343.784 C 74.080 344.140,72.640 344.596,72.200 344.797 C 71.760 344.998,69.150 345.887,66.400 346.772 C 63.650 347.658,60.860 348.577,60.200 348.815 C 50.357 352.372,48.592 352.079,50.422 347.194 C 50.874 345.987,51.856 343.110,52.605 340.800 C 54.903 333.704,58.050 324.625,58.357 324.202 C 58.518 323.981,58.886 322.810,59.175 321.600 C 59.463 320.390,60.366 317.510,61.180 315.200 C 63.462 308.729,65.175 303.692,66.214 300.400 C 68.035 294.628,70.862 286.195,71.179 285.587 C 71.354 285.250,71.625 284.397,71.780 283.691 C 71.935 282.986,72.228 282.306,72.431 282.181 C 72.634 282.055,72.806 281.558,72.813 281.076 C 72.821 280.594,73.519 278.400,74.365 276.200 L 75.904 272.200 75.136 271.000 C 74.713 270.340,73.744 268.630,72.981 267.200 C 72.218 265.770,71.423 264.330,71.214 264.000 C 70.459 262.809,66.511 254.163,66.010 252.600 C 65.727 251.720,65.355 250.820,65.182 250.600 C 64.589 249.843,60.102 235.796,59.432 232.600 C 59.064 230.840,58.514 228.500,58.210 227.400 C 54.751 214.858,53.980 188.709,56.612 173.200 C 56.967 171.110,57.342 168.860,57.445 168.200 C 57.549 167.540,57.887 166.100,58.197 165.000 C 58.508 163.900,59.065 161.560,59.436 159.800 C 60.368 155.380,64.082 143.668,65.171 141.720 C 65.392 141.324,66.110 139.613,66.767 137.917 C 67.941 134.889,74.212 122.443,75.581 120.427 C 75.964 119.862,77.429 117.600,78.835 115.400 C 87.706 101.522,104.432 84.033,116.600 75.909 C 117.480 75.322,119.909 73.662,121.998 72.221 C 124.088 70.779,125.945 69.600,126.126 69.600 C 126.308 69.600,127.236 69.063,128.190 68.407 C 130.347 66.923,142.558 60.841,145.800 59.636 C 147.120 59.145,148.740 58.509,149.400 58.222 C 155.035 55.773,169.206 51.600,171.886 51.600 C 172.418 51.600,173.187 51.421,173.595 51.203 C 174.689 50.617,181.505 49.620,190.000 48.802 C 194.665 48.353,215.827 48.624,220.000 49.186 M193.400 75.397 C 193.180 75.493,190.570 75.854,187.600 76.200 C 178.230 77.289,171.158 78.967,162.004 82.271 C 142.293 89.386,124.626 101.567,110.914 117.500 C 105.243 124.089,102.307 128.383,95.938 139.403 C 94.258 142.311,90.867 149.887,89.406 154.000 C 88.820 155.650,88.086 157.630,87.776 158.400 C 87.109 160.053,85.050 167.783,84.182 171.892 C 80.845 187.688,81.408 212.104,85.422 225.600 C 85.782 226.810,86.227 228.430,86.412 229.200 C 87.028 231.774,87.524 233.383,88.386 235.600 C 88.856 236.810,89.524 238.610,89.870 239.600 C 90.644 241.815,94.389 250.162,95.344 251.800 C 96.089 253.077,99.322 258.728,100.264 260.400 C 100.574 260.950,101.631 262.545,102.614 263.945 C 104.824 267.094,104.906 268.474,103.179 273.469 C 102.507 275.411,101.428 278.620,100.780 280.600 C 100.132 282.580,99.406 284.740,99.168 285.400 C 98.930 286.060,97.960 288.940,97.013 291.800 C 96.066 294.660,95.103 297.450,94.872 298.000 C 94.641 298.550,93.958 300.620,93.352 302.600 C 92.747 304.580,91.853 307.223,91.366 308.473 C 90.879 309.724,90.559 310.826,90.656 310.922 C 90.873 311.139,95.795 309.718,100.605 308.049 C 102.587 307.361,105.377 306.451,106.805 306.027 C 108.232 305.603,110.390 304.900,111.600 304.465 C 114.601 303.386,122.152 300.973,127.000 299.543 C 129.200 298.894,131.567 298.101,132.260 297.781 C 133.993 296.982,136.489 297.046,137.646 297.920 C 141.696 300.978,156.390 308.207,162.200 309.999 C 163.520 310.407,165.590 311.121,166.800 311.586 C 168.010 312.052,169.900 312.623,171.000 312.856 C 172.100 313.089,173.720 313.441,174.600 313.639 C 180.377 314.939,182.042 315.286,184.000 315.597 C 195.367 317.399,216.705 317.021,225.400 314.862 C 226.280 314.644,228.080 314.244,229.400 313.973 C 234.612 312.904,243.184 310.329,246.600 308.806 C 247.480 308.413,249.370 307.607,250.800 307.013 C 263.901 301.576,277.080 292.497,288.583 280.983 C 291.824 277.739,295.044 274.331,295.738 273.410 C 304.104 262.310,306.265 258.988,310.661 250.470 C 315.558 240.982,320.236 226.976,321.625 217.650 C 321.801 216.467,322.122 215.027,322.340 214.450 C 323.757 210.682,323.757 181.719,322.340 177.950 C 322.122 177.373,321.801 175.933,321.625 174.750 C 320.774 169.036,316.353 153.279,315.186 151.800 C 315.012 151.580,314.315 150.004,313.638 148.297 C 311.918 143.964,307.699 135.810,305.291 132.160 C 297.301 120.055,289.575 111.234,279.634 102.867 C 273.694 97.867,265.172 92.241,258.055 88.620 C 254.205 86.661,246.563 83.200,246.088 83.200 C 245.920 83.200,244.346 82.643,242.591 81.963 C 238.943 80.549,228.566 77.714,225.000 77.156 C 216.329 75.802,212.975 75.520,203.800 75.378 C 198.300 75.292,193.620 75.301,193.400 75.397 M163.095 124.006 C 167.492 124.591,168.943 126.488,172.134 135.822 C 174.112 141.606,177.392 150.574,177.979 151.800 C 178.189 152.240,178.853 154.040,179.454 155.800 C 180.055 157.560,180.805 159.404,181.119 159.899 C 182.207 161.610,181.587 165.795,179.799 168.800 C 178.292 171.333,171.002 180.000,170.378 180.000 C 169.860 180.000,168.400 182.631,168.400 183.563 C 168.400 186.249,178.556 201.695,183.800 206.985 C 184.460 207.651,185.270 208.572,185.600 209.031 C 186.246 209.932,193.691 216.631,196.233 218.600 C 205.823 226.027,219.149 233.199,222.270 232.613 C 223.602 232.363,229.995 225.695,236.345 217.932 C 239.243 214.389,239.224 214.400,242.688 214.400 C 245.094 214.400,259.100 220.576,261.866 222.857 C 262.122 223.068,263.562 223.872,265.066 224.643 C 274.312 229.386,277.914 231.532,278.947 232.917 C 280.860 235.479,279.450 246.421,276.360 252.997 C 273.076 259.983,260.229 268.327,250.800 269.598 C 249.370 269.790,247.210 270.160,246.000 270.419 C 243.597 270.933,237.384 270.709,235.400 270.037 C 234.740 269.813,232.130 269.014,229.600 268.262 C 224.527 266.753,218.591 264.620,215.200 263.088 C 213.990 262.541,212.550 261.958,212.000 261.792 C 211.450 261.626,209.712 260.889,208.138 260.154 C 206.564 259.419,204.398 258.472,203.324 258.049 C 199.496 256.540,190.412 251.232,185.800 247.810 C 184.480 246.830,182.410 245.319,181.200 244.452 C 175.798 240.581,163.239 228.121,157.800 221.237 C 156.700 219.845,155.260 218.072,154.600 217.297 C 152.655 215.013,147.584 207.720,143.406 201.200 C 142.349 199.550,141.150 197.750,140.743 197.200 C 140.335 196.650,139.438 195.120,138.750 193.800 C 138.062 192.480,137.184 190.950,136.800 190.400 C 134.655 187.329,130.693 176.836,129.173 170.200 C 127.844 164.398,128.303 151.893,129.980 148.200 C 130.179 147.760,130.651 146.410,131.027 145.200 C 133.860 136.092,143.801 124.992,150.400 123.567 C 151.941 123.234,159.177 123.485,163.095 124.006 " stroke="none" fill="#1ca213" fill-rule="evenodd"></path><path id="path2" d="M191.105 49.483 C 191.602 49.579,192.322 49.575,192.705 49.475 C 193.087 49.375,192.680 49.296,191.800 49.301 C 190.920 49.305,190.607 49.387,191.105 49.483 M212.700 49.482 C 213.195 49.578,214.005 49.578,214.500 49.482 C 214.995 49.387,214.590 49.309,213.600 49.309 C 212.610 49.309,212.205 49.387,212.700 49.482 M187.505 49.883 C 188.002 49.979,188.722 49.975,189.105 49.875 C 189.487 49.775,189.080 49.696,188.200 49.701 C 187.320 49.705,187.007 49.787,187.505 49.883 M183.300 50.276 C 183.685 50.376,184.315 50.376,184.700 50.276 C 185.085 50.175,184.770 50.093,184.000 50.093 C 183.230 50.093,182.915 50.175,183.300 50.276 M142.400 61.800 C 141.850 62.114,141.580 62.372,141.800 62.372 C 142.020 62.372,142.650 62.114,143.200 61.800 C 143.750 61.486,144.020 61.228,143.800 61.228 C 143.580 61.228,142.950 61.486,142.400 61.800 M272.400 66.579 C 272.400 66.689,272.940 67.059,273.600 67.400 C 274.260 67.741,274.800 67.931,274.800 67.821 C 274.800 67.711,274.260 67.341,273.600 67.000 C 272.940 66.659,272.400 66.469,272.400 66.579 M201.507 74.290 C 202.226 74.379,203.306 74.377,203.907 74.286 C 204.508 74.195,203.920 74.122,202.600 74.124 C 201.280 74.126,200.788 74.201,201.507 74.290 M195.511 74.693 C 196.451 74.778,197.891 74.777,198.711 74.691 C 199.530 74.605,198.760 74.536,197.000 74.537 C 195.240 74.539,194.570 74.609,195.511 74.693 M207.300 74.691 C 208.125 74.778,209.475 74.778,210.300 74.691 C 211.125 74.605,210.450 74.534,208.800 74.534 C 207.150 74.534,206.475 74.605,207.300 74.691 M290.000 77.725 C 290.000 77.824,290.661 78.409,291.468 79.025 C 292.276 79.641,292.811 79.941,292.656 79.691 C 292.340 79.179,290.000 77.447,290.000 77.725 M110.175 81.700 L 109.000 83.000 110.300 81.825 C 111.512 80.730,111.784 80.400,111.475 80.400 C 111.406 80.400,110.821 80.985,110.175 81.700 M107.375 84.100 L 106.200 85.400 107.500 84.225 C 108.712 83.130,108.984 82.800,108.675 82.800 C 108.606 82.800,108.021 83.385,107.375 84.100 M298.800 85.000 C 299.546 85.770,300.247 86.400,300.357 86.400 C 300.467 86.400,299.946 85.770,299.200 85.000 C 298.454 84.230,297.753 83.600,297.643 83.600 C 297.533 83.600,298.054 84.230,298.800 85.000 M104.378 86.700 L 103.000 88.200 104.500 86.822 C 105.896 85.538,106.184 85.200,105.878 85.200 C 105.812 85.200,105.137 85.875,104.378 86.700 M302.383 88.100 C 303.364 89.145,304.219 90.000,304.283 90.000 C 304.584 90.000,304.266 89.641,302.500 87.983 L 300.600 86.200 302.383 88.100 M100.187 90.500 L 97.800 93.000 100.300 90.613 C 102.622 88.395,102.983 88.000,102.687 88.000 C 102.626 88.000,101.501 89.125,100.187 90.500 M258.800 88.179 C 258.800 88.289,259.340 88.659,260.000 89.000 C 260.660 89.341,261.200 89.531,261.200 89.421 C 261.200 89.311,260.660 88.941,260.000 88.600 C 259.340 88.259,258.800 88.069,258.800 88.179 M95.775 94.900 L 94.600 96.200 95.900 95.025 C 97.112 93.930,97.384 93.600,97.075 93.600 C 97.006 93.600,96.421 94.185,95.775 94.900 M269.200 94.146 C 269.200 94.256,269.740 94.730,270.400 95.200 C 271.060 95.670,271.600 95.964,271.600 95.854 C 271.600 95.744,271.060 95.270,270.400 94.800 C 269.740 94.330,269.200 94.036,269.200 94.146 M310.783 96.500 C 311.764 97.545,312.619 98.400,312.683 98.400 C 312.984 98.400,312.666 98.041,310.900 96.383 L 309.000 94.600 310.783 96.500 M92.778 98.300 L 91.400 99.800 92.900 98.422 C 94.296 97.138,94.584 96.800,94.278 96.800 C 94.212 96.800,93.537 97.475,92.778 98.300 M313.200 99.325 C 313.200 99.394,313.785 99.979,314.500 100.625 L 315.800 101.800 314.625 100.500 C 313.530 99.288,313.200 99.016,313.200 99.325 M278.000 100.526 C 278.000 100.636,278.900 101.479,280.000 102.400 C 281.100 103.321,282.000 103.984,282.000 103.874 C 282.000 103.764,281.100 102.921,280.000 102.000 C 278.900 101.079,278.000 100.416,278.000 100.526 M124.975 102.500 L 123.800 103.800 125.100 102.625 C 126.312 101.530,126.584 101.200,126.275 101.200 C 126.206 101.200,125.621 101.785,124.975 102.500 M88.175 103.700 L 87.000 105.000 88.300 103.825 C 89.512 102.730,89.784 102.400,89.475 102.400 C 89.406 102.400,88.821 102.985,88.175 103.700 M121.781 105.300 L 120.200 107.000 121.900 105.419 C 123.481 103.948,123.784 103.600,123.481 103.600 C 123.416 103.600,122.651 104.365,121.781 105.300 M283.800 105.600 C 284.659 106.480,285.452 107.200,285.562 107.200 C 285.672 107.200,285.059 106.480,284.200 105.600 C 283.341 104.720,282.548 104.000,282.438 104.000 C 282.328 104.000,282.941 104.720,283.800 105.600 M116.589 110.100 L 113.800 113.000 116.700 110.211 C 118.295 108.677,119.600 107.372,119.600 107.311 C 119.600 107.017,119.180 107.406,116.589 110.100 M292.800 114.600 C 293.546 115.370,294.247 116.000,294.357 116.000 C 294.467 116.000,293.946 115.370,293.200 114.600 C 292.454 113.830,291.753 113.200,291.643 113.200 C 291.533 113.200,292.054 113.830,292.800 114.600 M108.975 118.500 L 107.800 119.800 109.100 118.625 C 109.815 117.979,110.400 117.394,110.400 117.325 C 110.400 117.016,110.070 117.288,108.975 118.500 M155.500 124.282 C 155.995 124.378,156.805 124.378,157.300 124.282 C 157.795 124.187,157.390 124.109,156.400 124.109 C 155.410 124.109,155.005 124.187,155.500 124.282 M160.700 124.682 C 161.195 124.778,162.005 124.778,162.500 124.682 C 162.995 124.587,162.590 124.509,161.600 124.509 C 160.610 124.509,160.205 124.587,160.700 124.682 M140.000 131.800 C 139.028 132.790,138.323 133.600,138.433 133.600 C 138.543 133.600,139.428 132.790,140.400 131.800 C 141.372 130.810,142.077 130.000,141.967 130.000 C 141.857 130.000,140.972 130.810,140.000 131.800 M309.000 137.200 C 309.341 137.860,309.711 138.400,309.821 138.400 C 309.931 138.400,309.741 137.860,309.400 137.200 C 309.059 136.540,308.689 136.000,308.579 136.000 C 308.469 136.000,308.659 136.540,309.000 137.200 M91.872 145.419 C 90.932 147.389,91.064 147.724,92.047 145.862 C 92.493 145.016,92.787 144.254,92.701 144.167 C 92.614 144.081,92.241 144.644,91.872 145.419 M128.909 160.800 C 128.909 161.790,128.987 162.195,129.082 161.700 C 129.178 161.205,129.178 160.395,129.082 159.900 C 128.987 159.405,128.909 159.810,128.909 160.800 M180.893 163.200 C 180.893 163.970,180.975 164.285,181.076 163.900 C 181.176 163.515,181.176 162.885,181.076 162.500 C 180.975 162.115,180.893 162.430,180.893 163.200 M175.775 172.900 L 174.600 174.200 175.900 173.025 C 177.112 171.930,177.384 171.600,177.075 171.600 C 177.006 171.600,176.421 172.185,175.775 172.900 M172.975 176.100 L 171.800 177.400 173.100 176.225 C 174.312 175.130,174.584 174.800,174.275 174.800 C 174.206 174.800,173.621 175.385,172.975 176.100 M323.293 180.400 C 323.293 181.170,323.375 181.485,323.476 181.100 C 323.576 180.715,323.576 180.085,323.476 179.700 C 323.375 179.315,323.293 179.630,323.293 180.400 M348.893 181.200 C 348.893 181.970,348.975 182.285,349.076 181.900 C 349.176 181.515,349.176 180.885,349.076 180.500 C 348.975 180.115,348.893 180.430,348.893 181.200 M81.693 182.000 C 81.693 182.770,81.775 183.085,81.876 182.700 C 81.976 182.315,81.976 181.685,81.876 181.300 C 81.775 180.915,81.693 181.230,81.693 182.000 M167.709 183.600 C 167.709 184.590,167.787 184.995,167.882 184.500 C 167.978 184.005,167.978 183.195,167.882 182.700 C 167.787 182.205,167.709 182.610,167.709 183.600 M56.114 184.200 C 56.117 185.300,56.195 185.703,56.287 185.095 C 56.379 184.486,56.377 183.586,56.282 183.095 C 56.187 182.603,56.111 183.100,56.114 184.200 M349.314 186.200 C 349.317 187.300,349.395 187.703,349.487 187.095 C 349.579 186.486,349.577 185.586,349.482 185.095 C 349.387 184.603,349.311 185.100,349.314 186.200 M81.309 186.400 C 81.309 187.390,81.387 187.795,81.482 187.300 C 81.578 186.805,81.578 185.995,81.482 185.500 C 81.387 185.005,81.309 185.410,81.309 186.400 M324.120 188.400 C 324.120 189.610,324.195 190.105,324.287 189.500 C 324.378 188.895,324.378 187.905,324.287 187.300 C 324.195 186.695,324.120 187.190,324.120 188.400 M169.400 188.400 C 169.741 189.060,170.111 189.600,170.221 189.600 C 170.331 189.600,170.141 189.060,169.800 188.400 C 169.459 187.740,169.089 187.200,168.979 187.200 C 168.869 187.200,169.059 187.740,169.400 188.400 M80.937 191.800 C 80.939 193.560,81.009 194.230,81.093 193.289 C 81.178 192.349,81.177 190.909,81.091 190.089 C 81.005 189.270,80.936 190.040,80.937 191.800 M349.766 196.000 C 349.766 200.070,349.825 201.735,349.898 199.700 C 349.971 197.665,349.971 194.335,349.898 192.300 C 349.825 190.265,349.766 191.930,349.766 196.000 M80.937 200.600 C 80.939 202.360,81.009 203.030,81.093 202.089 C 81.178 201.149,81.177 199.709,81.091 198.889 C 81.005 198.070,80.936 198.840,80.937 200.600 M324.120 204.000 C 324.120 205.210,324.195 205.705,324.287 205.100 C 324.378 204.495,324.378 203.505,324.287 202.900 C 324.195 202.295,324.120 202.790,324.120 204.000 M81.301 205.800 C 81.305 206.680,81.387 206.993,81.483 206.495 C 81.579 205.998,81.575 205.278,81.475 204.895 C 81.375 204.513,81.296 204.920,81.301 205.800 M349.309 206.400 C 349.309 207.390,349.387 207.795,349.482 207.300 C 349.578 206.805,349.578 205.995,349.482 205.500 C 349.387 205.005,349.309 205.410,349.309 206.400 M56.114 208.200 C 56.117 209.300,56.195 209.703,56.287 209.095 C 56.379 208.486,56.377 207.586,56.282 207.095 C 56.187 206.603,56.111 207.100,56.114 208.200 M81.693 210.400 C 81.693 211.170,81.775 211.485,81.876 211.100 C 81.976 210.715,81.976 210.085,81.876 209.700 C 81.775 209.315,81.693 209.630,81.693 210.400 M348.893 211.200 C 348.893 211.970,348.975 212.285,349.076 211.900 C 349.176 211.515,349.176 210.885,349.076 210.500 C 348.975 210.115,348.893 210.430,348.893 211.200 M323.293 212.000 C 323.293 212.770,323.375 213.085,323.476 212.700 C 323.576 212.315,323.576 211.685,323.476 211.300 C 323.375 210.915,323.293 211.230,323.293 212.000 M190.400 215.000 C 191.146 215.770,191.847 216.400,191.957 216.400 C 192.067 216.400,191.546 215.770,190.800 215.000 C 190.054 214.230,189.353 213.600,189.243 213.600 C 189.133 213.600,189.654 214.230,190.400 215.000 M241.705 215.087 C 242.314 215.179,243.214 215.177,243.705 215.082 C 244.197 214.987,243.700 214.911,242.600 214.914 C 241.500 214.917,241.097 214.995,241.705 215.087 M249.233 217.349 C 249.645 217.717,252.000 218.800,252.000 218.621 C 252.000 218.390,249.782 217.200,249.353 217.200 C 249.196 217.200,249.142 217.267,249.233 217.349 M160.800 223.800 C 161.546 224.570,162.247 225.200,162.357 225.200 C 162.467 225.200,161.946 224.570,161.200 223.800 C 160.454 223.030,159.753 222.400,159.643 222.400 C 159.533 222.400,160.054 223.030,160.800 223.800 M231.578 224.700 L 230.200 226.200 231.700 224.822 C 233.096 223.538,233.384 223.200,233.078 223.200 C 233.012 223.200,232.337 223.875,231.578 224.700 M163.800 227.200 C 164.659 228.080,165.452 228.800,165.562 228.800 C 165.672 228.800,165.059 228.080,164.200 227.200 C 163.341 226.320,162.548 225.600,162.438 225.600 C 162.328 225.600,162.941 226.320,163.800 227.200 M228.581 228.100 L 227.000 229.800 228.700 228.219 C 229.635 227.349,230.400 226.584,230.400 226.519 C 230.400 226.216,230.052 226.519,228.581 228.100 M276.400 231.711 C 276.400 231.787,276.985 232.278,277.700 232.801 C 278.504 233.390,278.784 233.487,278.433 233.055 C 277.900 232.399,276.400 231.407,276.400 231.711 M310.000 253.200 C 309.551 254.080,309.274 254.800,309.384 254.800 C 309.494 254.800,309.951 254.080,310.400 253.200 C 310.849 252.320,311.126 251.600,311.016 251.600 C 310.906 251.600,310.449 252.320,310.000 253.200 M67.228 253.800 C 67.228 254.020,67.486 254.650,67.800 255.200 C 68.114 255.750,68.372 256.020,68.372 255.800 C 68.372 255.580,68.114 254.950,67.800 254.400 C 67.486 253.850,67.228 253.580,67.228 253.800 M203.200 257.400 C 203.750 257.714,204.380 257.972,204.600 257.972 C 204.820 257.972,204.550 257.714,204.000 257.400 C 203.450 257.086,202.820 256.828,202.600 256.828 C 202.380 256.828,202.650 257.086,203.200 257.400 M71.800 263.600 C 72.141 264.260,72.511 264.800,72.621 264.800 C 72.731 264.800,72.541 264.260,72.200 263.600 C 71.859 262.940,71.489 262.400,71.379 262.400 C 71.269 262.400,71.459 262.940,71.800 263.600 M332.200 265.600 C 331.859 266.260,331.669 266.800,331.779 266.800 C 331.889 266.800,332.259 266.260,332.600 265.600 C 332.941 264.940,333.131 264.400,333.021 264.400 C 332.911 264.400,332.541 264.940,332.200 265.600 M248.900 269.076 C 249.285 269.176,249.915 269.176,250.300 269.076 C 250.685 268.975,250.370 268.893,249.600 268.893 C 248.830 268.893,248.515 268.975,248.900 269.076 M294.378 275.900 L 293.000 277.400 294.500 276.022 C 295.896 274.738,296.184 274.400,295.878 274.400 C 295.812 274.400,295.137 275.075,294.378 275.900 M288.593 282.100 L 284.200 286.600 288.700 282.207 C 292.880 278.126,293.382 277.600,293.093 277.600 C 293.034 277.600,291.009 279.625,288.593 282.100 M281.978 288.300 L 280.600 289.800 282.100 288.422 C 282.925 287.663,283.600 286.988,283.600 286.922 C 283.600 286.616,283.262 286.904,281.978 288.300 M278.975 290.900 L 277.800 292.200 279.100 291.025 C 279.815 290.379,280.400 289.794,280.400 289.725 C 280.400 289.416,280.070 289.688,278.975 290.900 M305.594 301.100 L 300.600 306.200 305.700 301.206 C 310.437 296.567,310.981 296.000,310.694 296.000 C 310.636 296.000,308.341 298.295,305.594 301.100 M147.600 304.579 C 147.600 304.689,148.140 305.059,148.800 305.400 C 149.460 305.741,150.000 305.931,150.000 305.821 C 150.000 305.711,149.460 305.341,148.800 305.000 C 148.140 304.659,147.600 304.469,147.600 304.579 M256.700 305.029 C 255.205 305.840,255.296 306.178,256.800 305.400 C 257.460 305.059,258.000 304.694,258.000 304.590 C 258.000 304.332,257.957 304.347,256.700 305.029 M298.975 307.300 L 297.800 308.600 299.100 307.425 C 299.815 306.779,300.400 306.194,300.400 306.125 C 300.400 305.816,300.070 306.088,298.975 307.300 M192.305 317.483 C 192.802 317.579,193.522 317.575,193.905 317.475 C 194.287 317.375,193.880 317.296,193.000 317.301 C 192.120 317.305,191.807 317.387,192.305 317.483 M212.100 317.476 C 212.485 317.576,213.115 317.576,213.500 317.476 C 213.885 317.375,213.570 317.293,212.800 317.293 C 212.030 317.293,211.715 317.375,212.100 317.476 M199.900 317.897 C 201.495 317.973,204.105 317.973,205.700 317.897 C 207.295 317.821,205.990 317.759,202.800 317.759 C 199.610 317.759,198.305 317.821,199.900 317.897 M146.400 332.200 C 146.950 332.514,147.580 332.772,147.800 332.772 C 148.020 332.772,147.750 332.514,147.200 332.200 C 146.650 331.886,146.020 331.628,145.800 331.628 C 145.580 331.628,145.850 331.886,146.400 332.200 M182.100 341.876 C 182.485 341.976,183.115 341.976,183.500 341.876 C 183.885 341.775,183.570 341.693,182.800 341.693 C 182.030 341.693,181.715 341.775,182.100 341.876 M188.705 342.683 C 189.202 342.779,189.922 342.775,190.305 342.675 C 190.687 342.575,190.280 342.496,189.400 342.501 C 188.520 342.505,188.207 342.587,188.705 342.683 M215.505 342.683 C 216.002 342.779,216.722 342.775,217.105 342.675 C 217.487 342.575,217.080 342.496,216.200 342.501 C 215.320 342.505,215.007 342.587,215.505 342.683 M50.527 349.800 C 50.582 350.343,50.928 350.621,51.604 350.666 C 52.439 350.720,52.458 350.700,51.725 350.541 C 51.243 350.436,50.758 350.047,50.648 349.675 C 50.502 349.189,50.469 349.224,50.527 349.800 " stroke="none" fill="#72be6b" fill-rule="evenodd"></path><path id="path3" d="M195.600 49.441 C 180.761 50.270,161.935 54.155,151.400 58.562 C 148.009 59.981,149.295 59.842,153.273 58.361 C 160.231 55.769,171.025 52.951,177.600 52.009 C 179.470 51.742,181.877 51.357,182.949 51.155 C 192.522 49.350,209.850 49.386,223.000 51.238 C 278.567 59.064,323.851 96.905,341.807 150.519 C 342.676 153.114,343.446 155.061,343.518 154.845 C 343.590 154.629,343.380 153.675,343.050 152.726 C 342.721 151.777,341.729 148.930,340.847 146.400 C 319.973 86.565,259.054 45.899,195.600 49.441 M144.400 61.338 C 108.307 77.454,79.226 107.416,66.305 141.800 C 65.643 143.560,64.759 145.900,64.339 147.000 C 55.997 168.854,53.722 199.747,58.640 224.400 C 59.896 230.698,59.784 228.040,58.472 220.400 C 55.606 203.718,55.781 186.459,58.999 168.615 C 59.516 165.747,60.216 162.410,60.554 161.200 C 60.891 159.990,61.614 157.380,62.160 155.400 C 70.170 126.344,89.826 97.771,114.447 79.393 C 124.302 72.037,130.027 68.726,146.600 60.796 C 150.289 59.031,148.676 59.428,144.400 61.338 M194.000 74.031 C 188.433 74.380,183.616 75.033,180.600 75.848 C 178.292 76.471,178.713 76.428,187.200 75.181 C 198.077 73.583,211.621 73.961,225.400 76.248 C 226.280 76.394,226.898 76.401,226.774 76.264 C 226.317 75.760,216.832 74.409,211.000 74.016 C 204.333 73.567,201.347 73.570,194.000 74.031 M174.200 76.991 C 146.111 84.049,119.121 102.092,103.883 124.000 C 92.816 139.912,85.587 156.243,82.815 171.600 C 82.557 173.030,82.184 174.932,81.985 175.827 C 79.884 185.322,79.888 206.017,81.994 216.600 C 83.348 223.406,83.782 225.350,84.627 228.400 C 85.938 233.130,88.581 240.723,89.988 243.800 C 90.189 244.240,90.996 246.024,91.780 247.763 C 92.565 249.503,93.308 250.825,93.432 250.702 C 93.556 250.578,93.116 249.424,92.454 248.138 C 82.160 228.123,78.294 199.310,82.641 175.000 C 91.440 125.793,127.924 88.096,177.800 76.676 C 178.303 76.561,178.155 76.492,177.400 76.491 C 176.740 76.489,175.300 76.715,174.200 76.991 M231.400 77.568 C 278.976 89.805,313.706 126.590,322.792 174.369 C 323.193 176.476,323.539 177.750,323.560 177.200 C 323.611 175.912,322.701 171.223,321.464 166.400 C 316.836 148.361,309.678 134.127,297.656 119.057 C 284.993 103.185,267.071 90.016,247.600 82.278 C 240.904 79.617,229.983 76.374,227.868 76.418 C 227.390 76.428,228.980 76.946,231.400 77.568 M153.626 124.348 C 153.970 124.573,156.659 124.916,159.601 125.112 L 164.951 125.467 166.417 127.119 C 167.345 128.165,168.357 130.060,169.175 132.285 C 169.885 134.218,170.889 136.880,171.405 138.200 C 171.921 139.520,172.819 141.950,173.401 143.600 C 173.983 145.250,174.704 147.230,175.003 148.000 C 178.000 155.730,180.400 162.548,180.400 163.332 C 180.400 165.570,177.591 169.928,172.411 175.727 C 165.674 183.270,165.602 184.066,170.947 191.940 C 171.746 193.117,172.400 194.176,172.400 194.293 C 172.400 195.244,181.685 207.055,185.865 211.421 C 195.976 221.983,217.667 235.447,222.624 234.238 C 224.308 233.827,235.804 221.799,238.318 217.817 C 240.751 213.965,244.683 215.173,264.000 225.707 C 265.210 226.366,268.180 227.987,270.600 229.308 C 276.264 232.400,278.011 233.580,278.419 234.585 C 278.670 235.205,278.755 235.242,278.775 234.741 C 278.831 233.289,275.897 231.490,258.800 222.489 C 256.930 221.504,254.140 220.023,252.600 219.198 C 243.023 214.064,240.750 214.019,236.914 218.885 C 232.438 224.564,224.633 232.911,223.265 233.482 C 221.243 234.327,219.978 233.950,213.113 230.462 C 193.881 220.690,179.679 207.027,169.445 188.451 C 166.502 183.110,166.584 182.753,172.125 176.724 C 177.086 171.325,178.609 169.257,179.927 166.126 C 181.228 163.036,181.488 164.144,176.003 149.400 C 173.756 143.360,171.730 137.839,170.141 133.423 C 167.379 125.751,166.474 125.044,158.834 124.593 C 156.322 124.445,153.982 124.237,153.634 124.132 C 153.062 123.959,153.062 123.980,153.626 124.348 M149.400 124.931 C 141.976 127.842,133.236 139.291,130.834 149.252 C 126.927 165.452,130.423 178.894,144.140 200.400 C 161.120 227.024,181.064 246.296,202.000 256.312 C 206.690 258.555,214.082 261.651,214.280 261.454 C 214.369 261.364,212.588 260.506,210.321 259.545 C 201.092 255.637,190.772 249.967,185.755 246.050 C 185.120 245.554,183.430 244.235,182.000 243.118 C 167.315 231.649,154.213 216.130,140.871 194.400 C 125.454 169.290,126.234 146.171,143.046 129.958 C 146.489 126.638,147.961 125.713,151.000 124.962 C 152.514 124.588,152.708 124.467,151.800 124.464 C 151.140 124.462,150.060 124.673,149.400 124.931 M343.693 156.400 C 343.804 156.950,344.391 159.470,344.997 162.000 C 345.602 164.530,346.415 168.130,346.802 170.000 C 347.189 171.870,347.527 173.040,347.553 172.600 C 347.651 170.927,344.313 156.144,343.715 155.603 C 343.592 155.491,343.582 155.850,343.693 156.400 M347.834 176.200 C 347.947 177.740,348.205 180.710,348.406 182.800 C 348.873 187.658,348.869 204.129,348.398 209.600 C 348.199 211.910,347.945 214.880,347.832 216.200 L 347.628 218.600 348.007 216.600 C 349.923 206.485,349.920 185.662,348.001 175.400 C 347.654 173.547,347.642 173.606,347.834 176.200 M323.790 180.600 C 323.867 181.700,324.154 185.651,324.427 189.379 C 324.823 194.795,324.822 197.530,324.421 202.979 C 324.144 206.731,323.854 210.700,323.776 211.800 C 323.668 213.323,323.781 213.037,324.252 210.600 C 325.136 206.030,325.147 186.334,324.269 181.800 C 323.794 179.347,323.682 179.067,323.790 180.600 M322.869 217.227 C 321.191 227.903,316.852 240.757,311.267 251.600 C 281.993 308.432,214.357 333.201,155.600 308.607 C 151.593 306.930,143.046 302.561,139.650 300.455 C 135.665 297.983,135.529 297.942,133.516 298.591 C 132.572 298.896,128.830 300.076,125.200 301.214 C 121.570 302.352,116.800 303.872,114.600 304.591 C 112.400 305.311,107.360 306.936,103.400 308.201 C 99.440 309.467,94.974 310.929,93.476 311.451 C 88.762 313.093,88.746 313.035,91.600 304.717 C 93.563 298.997,94.118 296.936,93.008 299.489 C 91.774 302.328,88.790 311.796,88.976 312.282 C 89.275 313.061,90.457 312.918,94.307 311.640 C 99.419 309.943,109.257 306.770,116.800 304.385 C 120.430 303.237,126.010 301.444,129.200 300.401 C 135.791 298.246,135.458 298.224,139.937 301.125 C 142.684 302.904,154.399 308.810,157.000 309.727 C 157.880 310.037,159.883 310.766,161.450 311.346 C 173.943 315.971,188.809 318.590,202.600 318.597 C 243.423 318.616,282.266 297.746,304.588 263.800 C 311.949 252.607,316.043 243.988,319.982 231.400 C 321.786 225.633,323.822 216.050,323.547 214.621 C 323.466 214.199,323.161 215.372,322.869 217.227 M346.448 223.843 C 338.706 262.507,316.954 295.561,285.000 317.218 C 280.449 320.302,268.814 327.200,268.162 327.200 C 268.081 327.200,266.474 327.922,264.590 328.805 C 240.885 339.910,212.804 344.567,187.399 341.608 C 178.133 340.528,175.532 340.301,178.000 340.788 C 184.127 341.995,194.104 342.800,202.916 342.798 C 232.162 342.790,258.483 334.969,283.000 319.001 C 310.086 301.361,330.576 275.269,341.272 244.800 C 343.990 237.056,347.877 221.510,347.532 219.759 C 347.460 219.389,346.971 221.226,346.448 223.843 M59.642 228.800 C 59.627 229.463,60.396 232.607,61.403 236.000 C 61.762 237.210,62.210 238.740,62.399 239.400 C 64.877 248.051,70.198 260.298,75.563 269.699 L 76.875 271.998 76.064 274.499 C 75.618 275.875,71.094 289.330,66.010 304.400 C 51.555 347.249,50.754 349.714,51.158 350.118 C 51.387 350.347,53.199 349.945,55.865 349.075 C 60.633 347.518,77.769 342.015,87.800 338.819 C 105.314 333.239,113.232 330.611,112.879 330.493 C 112.528 330.376,107.237 332.018,95.800 335.793 C 93.600 336.519,89.370 337.872,86.400 338.801 C 83.430 339.730,78.930 341.168,76.400 341.997 C 71.361 343.649,57.946 347.925,54.305 349.040 C 53.043 349.427,51.880 349.613,51.721 349.455 C 51.448 349.181,54.655 339.463,69.890 294.400 C 78.169 269.913,77.573 272.449,75.803 269.220 C 69.479 257.683,64.648 245.982,61.430 234.400 C 60.106 229.638,59.655 228.225,59.642 228.800 M278.077 242.286 C 276.207 252.397,272.974 257.345,265.000 262.297 C 250.793 271.121,238.643 271.258,218.425 262.824 C 216.789 262.142,215.277 261.641,215.065 261.712 C 213.992 262.069,230.961 267.982,235.986 269.001 C 240.985 270.015,250.050 269.341,255.215 267.573 C 263.408 264.767,272.722 258.107,275.114 253.345 C 276.745 250.097,279.046 241.773,278.745 240.211 C 278.665 239.796,278.365 240.730,278.077 242.286 M93.600 251.386 C 93.600 251.984,97.950 259.503,100.873 263.956 C 102.373 266.241,103.600 267.842,103.600 267.513 C 103.600 267.184,103.006 266.124,102.280 265.158 C 100.678 263.025,98.281 259.171,96.212 255.400 C 94.424 252.141,93.600 250.875,93.600 251.386 M101.667 273.288 C 100.763 275.990,98.572 282.501,96.798 287.758 C 95.024 293.015,93.628 297.483,93.696 297.688 C 93.764 297.893,96.038 291.465,98.750 283.403 C 101.461 275.342,103.596 268.663,103.495 268.562 C 103.393 268.460,102.571 270.587,101.667 273.288 M127.000 325.774 C 124.800 326.501,120.881 327.776,118.291 328.605 C 115.700 329.435,113.658 330.192,113.752 330.286 C 113.900 330.433,121.821 328.020,129.326 325.542 L 131.652 324.774 135.726 326.830 C 148.086 333.067,172.607 341.331,175.697 340.301 C 175.935 340.222,175.066 339.929,173.765 339.650 C 160.383 336.785,148.970 332.844,137.060 326.976 C 130.986 323.983,132.037 324.109,127.000 325.774 " stroke="none" fill="#8ccf8c" fill-rule="evenodd"></path><path id="path4" d="M194.300 49.489 C 195.015 49.578,196.185 49.578,196.900 49.489 C 197.615 49.401,197.030 49.328,195.600 49.328 C 194.170 49.328,193.585 49.401,194.300 49.489 M208.707 49.490 C 209.426 49.579,210.506 49.577,211.107 49.486 C 211.708 49.395,211.120 49.322,209.800 49.324 C 208.480 49.326,207.988 49.401,208.707 49.490 M192.100 74.676 C 192.485 74.776,193.115 74.776,193.500 74.676 C 193.885 74.575,193.570 74.493,192.800 74.493 C 192.030 74.493,191.715 74.575,192.100 74.676 M212.100 74.676 C 212.485 74.776,213.115 74.776,213.500 74.676 C 213.885 74.575,213.570 74.493,212.800 74.493 C 212.030 74.493,211.715 74.575,212.100 74.676 M100.000 91.000 C 98.361 92.650,97.110 94.000,97.220 94.000 C 97.330 94.000,98.761 92.650,100.400 91.000 C 102.039 89.350,103.290 88.000,103.180 88.000 C 103.070 88.000,101.639 89.350,100.000 91.000 M307.400 93.200 C 308.259 94.080,309.052 94.800,309.162 94.800 C 309.272 94.800,308.659 94.080,307.800 93.200 C 306.941 92.320,306.148 91.600,306.038 91.600 C 305.928 91.600,306.541 92.320,307.400 93.200 M95.375 95.700 L 94.200 97.000 95.500 95.825 C 96.712 94.730,96.984 94.400,96.675 94.400 C 96.606 94.400,96.021 94.985,95.375 95.700 M120.778 105.900 L 119.400 107.400 120.900 106.022 C 121.725 105.263,122.400 104.588,122.400 104.522 C 122.400 104.216,122.062 104.504,120.778 105.900 M112.378 114.300 L 111.000 115.800 112.500 114.422 C 113.325 113.663,114.000 112.988,114.000 112.922 C 114.000 112.616,113.662 112.904,112.378 114.300 M129.301 157.400 C 129.305 158.280,129.387 158.593,129.483 158.095 C 129.579 157.598,129.575 156.878,129.475 156.495 C 129.375 156.113,129.296 156.520,129.301 157.400 M129.301 164.200 C 129.305 165.080,129.387 165.393,129.483 164.895 C 129.579 164.398,129.575 163.678,129.475 163.295 C 129.375 162.913,129.296 163.320,129.301 164.200 M324.555 196.200 C 324.556 199.060,324.620 200.178,324.697 198.683 C 324.774 197.189,324.774 194.849,324.696 193.483 C 324.618 192.118,324.555 193.340,324.555 196.200 M55.742 196.200 C 55.741 198.180,55.808 199.040,55.892 198.112 C 55.976 197.184,55.977 195.564,55.895 194.512 C 55.812 193.460,55.743 194.220,55.742 196.200 M348.893 208.800 C 348.893 209.570,348.975 209.885,349.076 209.500 C 349.176 209.115,349.176 208.485,349.076 208.100 C 348.975 207.715,348.893 208.030,348.893 208.800 M185.400 210.400 C 186.259 211.280,187.052 212.000,187.162 212.000 C 187.272 212.000,186.659 211.280,185.800 210.400 C 184.941 209.520,184.148 208.800,184.038 208.800 C 183.928 208.800,184.541 209.520,185.400 210.400 M166.800 230.200 C 167.546 230.970,168.247 231.600,168.357 231.600 C 168.467 231.600,167.946 230.970,167.200 230.200 C 166.454 229.430,165.753 228.800,165.643 228.800 C 165.533 228.800,166.054 229.430,166.800 230.200 M224.975 232.100 L 223.800 233.400 225.100 232.225 C 225.815 231.579,226.400 230.994,226.400 230.925 C 226.400 230.616,226.070 230.888,224.975 232.100 M171.200 234.600 C 172.617 236.030,173.867 237.200,173.977 237.200 C 174.087 237.200,173.017 236.030,171.600 234.600 C 170.183 233.170,168.933 232.000,168.823 232.000 C 168.713 232.000,169.783 233.170,171.200 234.600 M240.900 269.887 C 241.505 269.978,242.495 269.978,243.100 269.887 C 243.705 269.795,243.210 269.720,242.000 269.720 C 240.790 269.720,240.295 269.795,240.900 269.887 M310.975 295.300 L 309.800 296.600 311.100 295.425 C 311.815 294.779,312.400 294.194,312.400 294.125 C 312.400 293.816,312.070 294.088,310.975 295.300 M301.578 304.700 L 300.200 306.200 301.700 304.822 C 303.096 303.538,303.384 303.200,303.078 303.200 C 303.012 303.200,302.337 303.875,301.578 304.700 M194.700 317.882 C 195.195 317.978,196.005 317.978,196.500 317.882 C 196.995 317.787,196.590 317.709,195.600 317.709 C 194.610 317.709,194.205 317.787,194.700 317.882 M209.100 317.882 C 209.595 317.978,210.405 317.978,210.900 317.882 C 211.395 317.787,210.990 317.709,210.000 317.709 C 209.010 317.709,208.605 317.787,209.100 317.882 M199.700 343.097 C 201.405 343.172,204.195 343.172,205.900 343.097 C 207.605 343.022,206.210 342.961,202.800 342.961 C 199.390 342.961,197.995 343.022,199.700 343.097 " stroke="none" fill="#8cca84" fill-rule="evenodd"></path><path id="path5" d="M191.300 49.076 C 191.685 49.176,192.315 49.176,192.700 49.076 C 193.085 48.975,192.770 48.893,192.000 48.893 C 191.230 48.893,190.915 48.975,191.300 49.076 M212.900 49.076 C 213.285 49.176,213.915 49.176,214.300 49.076 C 214.685 48.975,214.370 48.893,213.600 48.893 C 212.830 48.893,212.515 48.975,212.900 49.076 M195.700 75.091 C 196.525 75.178,197.875 75.178,198.700 75.091 C 199.525 75.005,198.850 74.934,197.200 74.934 C 195.550 74.934,194.875 75.005,195.700 75.091 M207.091 75.089 C 207.801 75.177,209.061 75.179,209.891 75.092 C 210.721 75.005,210.140 74.933,208.600 74.931 C 207.060 74.929,206.381 75.000,207.091 75.089 M99.978 90.300 L 98.600 91.800 100.100 90.422 C 101.496 89.138,101.784 88.800,101.478 88.800 C 101.412 88.800,100.737 89.475,99.978 90.300 M307.983 92.900 C 308.964 93.945,309.819 94.800,309.883 94.800 C 310.184 94.800,309.866 94.441,308.100 92.783 L 306.200 91.000 307.983 92.900 M95.785 94.500 L 93.800 96.600 95.900 94.615 C 97.851 92.771,98.183 92.400,97.885 92.400 C 97.822 92.400,96.877 93.345,95.785 94.500 M120.581 106.900 L 119.000 108.600 120.700 107.019 C 122.281 105.548,122.584 105.200,122.281 105.200 C 122.216 105.200,121.451 105.965,120.581 106.900 M288.200 110.400 C 290.171 112.380,291.873 114.000,291.983 114.000 C 292.093 114.000,290.571 112.380,288.600 110.400 C 286.629 108.420,284.927 106.800,284.817 106.800 C 284.707 106.800,286.229 108.420,288.200 110.400 M113.381 114.100 L 111.800 115.800 113.500 114.219 C 115.081 112.748,115.384 112.400,115.081 112.400 C 115.016 112.400,114.251 113.165,113.381 114.100 M293.200 115.725 C 293.200 115.794,293.785 116.379,294.500 117.025 L 295.800 118.200 294.625 116.900 C 293.530 115.688,293.200 115.416,293.200 115.725 M155.505 123.883 C 156.002 123.979,156.722 123.975,157.105 123.875 C 157.487 123.775,157.080 123.696,156.200 123.701 C 155.320 123.705,155.007 123.787,155.505 123.883 M160.900 124.276 C 161.285 124.376,161.915 124.376,162.300 124.276 C 162.685 124.175,162.370 124.093,161.600 124.093 C 160.830 124.093,160.515 124.175,160.900 124.276 M173.978 175.500 L 172.600 177.000 174.100 175.622 C 174.925 174.863,175.600 174.188,175.600 174.122 C 175.600 173.816,175.262 174.104,173.978 175.500 M170.975 178.900 L 169.800 180.200 171.100 179.025 C 171.815 178.379,172.400 177.794,172.400 177.725 C 172.400 177.416,172.070 177.688,170.975 178.900 M168.093 183.600 C 168.093 184.370,168.175 184.685,168.276 184.300 C 168.376 183.915,168.376 183.285,168.276 182.900 C 168.175 182.515,168.093 182.830,168.093 183.600 M350.166 196.000 C 350.166 200.070,350.225 201.735,350.298 199.700 C 350.371 197.665,350.371 194.335,350.298 192.300 C 350.225 190.265,350.166 191.930,350.166 196.000 M81.693 205.200 C 81.693 205.970,81.775 206.285,81.876 205.900 C 81.976 205.515,81.976 204.885,81.876 204.500 C 81.775 204.115,81.693 204.430,81.693 205.200 M187.200 211.400 C 188.617 212.830,189.867 214.000,189.977 214.000 C 190.087 214.000,189.017 212.830,187.600 211.400 C 186.183 209.970,184.933 208.800,184.823 208.800 C 184.713 208.800,185.783 209.970,187.200 211.400 M241.500 214.682 C 241.995 214.778,242.805 214.778,243.300 214.682 C 243.795 214.587,243.390 214.509,242.400 214.509 C 241.410 214.509,241.005 214.587,241.500 214.682 M232.175 223.300 L 231.000 224.600 232.300 223.425 C 233.015 222.779,233.600 222.194,233.600 222.125 C 233.600 221.816,233.270 222.088,232.175 223.300 M169.193 233.300 C 171.499 235.665,173.434 237.600,173.493 237.600 C 173.782 237.600,173.294 237.087,169.300 233.193 L 165.000 229.000 169.193 233.300 M224.575 231.700 L 223.400 233.000 224.700 231.825 C 225.415 231.179,226.000 230.594,226.000 230.525 C 226.000 230.216,225.670 230.488,224.575 231.700 M174.800 238.525 C 174.800 238.594,175.385 239.179,176.100 239.825 L 177.400 241.000 176.225 239.700 C 175.130 238.488,174.800 238.216,174.800 238.525 M279.293 239.600 C 279.293 240.370,279.375 240.685,279.476 240.300 C 279.576 239.915,279.576 239.285,279.476 238.900 C 279.375 238.515,279.293 238.830,279.293 239.600 M314.575 292.100 L 313.400 293.400 314.700 292.225 C 315.415 291.579,316.000 290.994,316.000 290.925 C 316.000 290.616,315.670 290.888,314.575 292.100 M311.578 295.500 L 310.200 297.000 311.700 295.622 C 313.096 294.338,313.384 294.000,313.078 294.000 C 313.012 294.000,312.337 294.675,311.578 295.500 M301.978 305.100 L 300.600 306.600 302.100 305.222 C 302.925 304.463,303.600 303.788,303.600 303.722 C 303.600 303.416,303.262 303.704,301.978 305.100 M200.500 317.496 C 201.765 317.575,203.835 317.575,205.100 317.496 C 206.365 317.416,205.330 317.351,202.800 317.351 C 200.270 317.351,199.235 317.416,200.500 317.496 M216.500 343.076 C 216.885 343.176,217.515 343.176,217.900 343.076 C 218.285 342.975,217.970 342.893,217.200 342.893 C 216.430 342.893,216.115 342.975,216.500 343.076 " stroke="none" fill="#45a93b" fill-rule="evenodd"></path><path id="path6" d="M198.123 49.099 C 200.720 49.169,204.860 49.168,207.323 49.098 C 209.785 49.028,207.660 48.971,202.600 48.972 C 197.540 48.972,195.525 49.029,198.123 49.099 M266.433 63.349 C 266.845 63.717,269.200 64.800,269.200 64.621 C 269.200 64.390,266.982 63.200,266.553 63.200 C 266.396 63.200,266.342 63.267,266.433 63.349 M299.200 85.000 C 299.946 85.770,300.647 86.400,300.757 86.400 C 300.867 86.400,300.346 85.770,299.600 85.000 C 298.854 84.230,298.153 83.600,298.043 83.600 C 297.933 83.600,298.454 84.230,299.200 85.000 M103.775 86.900 L 102.600 88.200 103.900 87.025 C 105.112 85.930,105.384 85.600,105.075 85.600 C 105.006 85.600,104.421 86.185,103.775 86.900 M303.000 88.400 C 303.859 89.280,304.652 90.000,304.762 90.000 C 304.872 90.000,304.259 89.280,303.400 88.400 C 302.541 87.520,301.748 86.800,301.638 86.800 C 301.528 86.800,302.141 87.520,303.000 88.400 M93.178 97.500 L 91.800 99.000 93.300 97.622 C 94.696 96.338,94.984 96.000,94.678 96.000 C 94.612 96.000,93.937 96.675,93.178 97.500 M289.400 111.200 C 290.483 112.300,291.460 113.200,291.570 113.200 C 291.680 113.200,290.883 112.300,289.800 111.200 C 288.717 110.100,287.740 109.200,287.630 109.200 C 287.520 109.200,288.317 110.100,289.400 111.200 M158.500 124.276 C 158.885 124.376,159.515 124.376,159.900 124.276 C 160.285 124.175,159.970 124.093,159.200 124.093 C 158.430 124.093,158.115 124.175,158.500 124.276 M141.200 130.200 C 139.561 131.850,138.310 133.200,138.420 133.200 C 138.530 133.200,139.961 131.850,141.600 130.200 C 143.239 128.550,144.490 127.200,144.380 127.200 C 144.270 127.200,142.839 128.550,141.200 130.200 M314.028 147.800 C 314.028 148.020,314.286 148.650,314.600 149.200 C 314.914 149.750,315.172 150.020,315.172 149.800 C 315.172 149.580,314.914 148.950,314.600 148.400 C 314.286 147.850,314.028 147.580,314.028 147.800 M128.914 157.400 C 128.917 158.500,128.995 158.903,129.087 158.295 C 129.179 157.686,129.177 156.786,129.082 156.295 C 128.987 155.803,128.911 156.300,128.914 157.400 M128.914 164.200 C 128.917 165.300,128.995 165.703,129.087 165.095 C 129.179 164.486,129.177 163.586,129.082 163.095 C 128.987 162.603,128.911 163.100,128.914 164.200 M56.093 181.200 C 56.093 181.970,56.175 182.285,56.276 181.900 C 56.376 181.515,56.376 180.885,56.276 180.500 C 56.175 180.115,56.093 180.430,56.093 181.200 M55.724 188.600 C 55.726 189.920,55.801 190.412,55.890 189.693 C 55.979 188.974,55.977 187.894,55.886 187.293 C 55.795 186.692,55.722 187.280,55.724 188.600 M324.160 196.200 C 324.161 199.500,324.222 200.797,324.298 199.082 C 324.373 197.367,324.372 194.667,324.297 193.082 C 324.221 191.497,324.159 192.900,324.160 196.200 M55.346 196.200 C 55.347 198.400,55.414 199.249,55.495 198.087 C 55.576 196.924,55.576 195.124,55.493 194.087 C 55.411 193.049,55.345 194.000,55.346 196.200 M55.724 203.800 C 55.726 205.120,55.801 205.612,55.890 204.893 C 55.979 204.174,55.977 203.094,55.886 202.493 C 55.795 201.892,55.722 202.480,55.724 203.800 M56.093 211.200 C 56.093 211.970,56.175 212.285,56.276 211.900 C 56.376 211.515,56.376 210.885,56.276 210.500 C 56.175 210.115,56.093 210.430,56.093 211.200 M238.175 216.500 L 237.000 217.800 238.300 216.625 C 239.015 215.979,239.600 215.394,239.600 215.325 C 239.600 215.016,239.270 215.288,238.175 216.500 M259.200 222.179 C 259.200 222.289,259.740 222.659,260.400 223.000 C 261.060 223.341,261.600 223.531,261.600 223.421 C 261.600 223.311,261.060 222.941,260.400 222.600 C 259.740 222.259,259.200 222.069,259.200 222.179 M231.978 223.900 L 230.600 225.400 232.100 224.022 C 233.496 222.738,233.784 222.400,233.478 222.400 C 233.412 222.400,232.737 223.075,231.978 223.900 M160.000 223.325 C 160.000 223.394,160.585 223.979,161.300 224.625 L 162.600 225.800 161.425 224.500 C 160.330 223.288,160.000 223.016,160.000 223.325 M228.581 227.700 L 227.000 229.400 228.700 227.819 C 230.281 226.348,230.584 226.000,230.281 226.000 C 230.216 226.000,229.451 226.765,228.581 227.700 M216.800 231.796 C 216.800 232.070,219.249 233.284,219.432 233.101 C 219.519 233.014,218.962 232.644,218.195 232.278 C 217.428 231.912,216.800 231.695,216.800 231.796 M278.575 290.900 L 277.400 292.200 278.700 291.025 C 279.415 290.379,280.000 289.794,280.000 289.725 C 280.000 289.416,279.670 289.688,278.575 290.900 M189.505 317.083 C 190.002 317.179,190.722 317.175,191.105 317.075 C 191.487 316.975,191.080 316.896,190.200 316.901 C 189.320 316.905,189.007 316.987,189.505 317.083 M214.705 317.083 C 215.202 317.179,215.922 317.175,216.305 317.075 C 216.687 316.975,216.280 316.896,215.400 316.901 C 214.520 316.905,214.207 316.987,214.705 317.083 M195.305 317.487 C 195.914 317.579,196.814 317.577,197.305 317.482 C 197.797 317.387,197.300 317.311,196.200 317.314 C 195.100 317.317,194.697 317.395,195.305 317.487 M208.500 317.487 C 209.105 317.578,210.095 317.578,210.700 317.487 C 211.305 317.395,210.810 317.320,209.600 317.320 C 208.390 317.320,207.895 317.395,208.500 317.487 " stroke="none" fill="#54bc4c" fill-rule="evenodd"></path><path id="path7" d="M201.511 74.693 C 202.451 74.778,203.891 74.777,204.711 74.691 C 205.530 74.605,204.760 74.536,203.000 74.537 C 201.240 74.539,200.570 74.609,201.511 74.693 M192.305 75.083 C 192.802 75.179,193.522 75.175,193.905 75.075 C 194.287 74.975,193.880 74.896,193.000 74.901 C 192.120 74.905,191.807 74.987,192.305 75.083 M211.905 75.083 C 212.402 75.179,213.122 75.175,213.505 75.075 C 213.887 74.975,213.480 74.896,212.600 74.901 C 211.720 74.905,211.407 74.987,211.905 75.083 M218.500 75.876 C 218.885 75.976,219.515 75.976,219.900 75.876 C 220.285 75.775,219.970 75.693,219.200 75.693 C 218.430 75.693,218.115 75.775,218.500 75.876 M283.200 105.400 C 283.946 106.170,284.647 106.800,284.757 106.800 C 284.867 106.800,284.346 106.170,283.600 105.400 C 282.854 104.630,282.153 104.000,282.043 104.000 C 281.933 104.000,282.454 104.630,283.200 105.400 M116.800 110.200 C 115.161 111.850,113.910 113.200,114.020 113.200 C 114.130 113.200,115.561 111.850,117.200 110.200 C 118.839 108.550,120.090 107.200,119.980 107.200 C 119.870 107.200,118.439 108.550,116.800 110.200 M175.775 173.300 L 174.600 174.600 175.900 173.425 C 177.112 172.330,177.384 172.000,177.075 172.000 C 177.006 172.000,176.421 172.585,175.775 173.300 M348.901 178.600 C 348.905 179.480,348.987 179.793,349.083 179.295 C 349.179 178.798,349.175 178.078,349.075 177.695 C 348.975 177.313,348.896 177.720,348.901 178.600 M349.293 182.800 C 349.293 183.570,349.375 183.885,349.476 183.500 C 349.576 183.115,349.576 182.485,349.476 182.100 C 349.375 181.715,349.293 182.030,349.293 182.800 M81.701 185.000 C 81.705 185.880,81.787 186.193,81.883 185.695 C 81.979 185.198,81.975 184.478,81.875 184.095 C 81.775 183.713,81.696 184.120,81.701 185.000 M349.720 186.800 C 349.720 188.010,349.795 188.505,349.887 187.900 C 349.978 187.295,349.978 186.305,349.887 185.700 C 349.795 185.095,349.720 185.590,349.720 186.800 M81.337 191.000 C 81.339 192.760,81.409 193.430,81.493 192.489 C 81.578 191.549,81.577 190.109,81.491 189.289 C 81.405 188.470,81.336 189.240,81.337 191.000 M80.901 196.200 C 80.905 197.080,80.987 197.393,81.083 196.895 C 81.179 196.398,81.175 195.678,81.075 195.295 C 80.975 194.913,80.896 195.320,80.901 196.200 M81.334 201.200 C 81.334 202.850,81.405 203.525,81.491 202.700 C 81.578 201.875,81.578 200.525,81.491 199.700 C 81.405 198.875,81.334 199.550,81.334 201.200 M349.720 205.200 C 349.720 206.410,349.795 206.905,349.887 206.300 C 349.978 205.695,349.978 204.705,349.887 204.100 C 349.795 203.495,349.720 203.990,349.720 205.200 M183.200 207.400 C 183.946 208.170,184.647 208.800,184.757 208.800 C 184.867 208.800,184.346 208.170,183.600 207.400 C 182.854 206.630,182.153 206.000,182.043 206.000 C 181.933 206.000,182.454 206.630,183.200 207.400 M81.693 207.600 C 81.693 208.370,81.775 208.685,81.876 208.300 C 81.976 207.915,81.976 207.285,81.876 206.900 C 81.775 206.515,81.693 206.830,81.693 207.600 M349.293 209.200 C 349.293 209.970,349.375 210.285,349.476 209.900 C 349.576 209.515,349.576 208.885,349.476 208.500 C 349.375 208.115,349.293 208.430,349.293 209.200 M348.893 213.600 C 348.893 214.370,348.975 214.685,349.076 214.300 C 349.176 213.915,349.176 213.285,349.076 212.900 C 348.975 212.515,348.893 212.830,348.893 213.600 M271.785 258.100 L 269.800 260.200 271.900 258.215 C 273.851 256.371,274.183 256.000,273.885 256.000 C 273.822 256.000,272.877 256.945,271.785 258.100 M329.800 270.400 C 329.459 271.060,329.269 271.600,329.379 271.600 C 329.489 271.600,329.859 271.060,330.200 270.400 C 330.541 269.740,330.731 269.200,330.621 269.200 C 330.511 269.200,330.141 269.740,329.800 270.400 M240.500 270.291 C 241.325 270.378,242.675 270.378,243.500 270.291 C 244.325 270.205,243.650 270.134,242.000 270.134 C 240.350 270.134,239.675 270.205,240.500 270.291 M306.791 300.300 L 303.400 303.800 306.900 300.409 C 310.151 297.259,310.582 296.800,310.291 296.800 C 310.231 296.800,308.656 298.375,306.791 300.300 M265.200 329.400 C 264.650 329.714,264.380 329.972,264.600 329.972 C 264.820 329.972,265.450 329.714,266.000 329.400 C 266.550 329.086,266.820 328.828,266.600 328.828 C 266.380 328.828,265.750 329.086,265.200 329.400 M190.500 343.091 C 191.325 343.178,192.675 343.178,193.500 343.091 C 194.325 343.005,193.650 342.934,192.000 342.934 C 190.350 342.934,189.675 343.005,190.500 343.091 M212.300 343.089 C 213.015 343.178,214.185 343.178,214.900 343.089 C 215.615 343.001,215.030 342.928,213.600 342.928 C 212.170 342.928,211.585 343.001,212.300 343.089 M199.500 343.498 C 201.315 343.572,204.285 343.572,206.100 343.498 C 207.915 343.423,206.430 343.363,202.800 343.363 C 199.170 343.363,197.685 343.423,199.500 343.498 " stroke="none" fill="#54ab49" fill-rule="evenodd"></path><path id="path8" d="M197.900 48.699 C 200.595 48.768,205.005 48.768,207.700 48.699 C 210.395 48.630,208.190 48.573,202.800 48.573 C 197.410 48.573,195.205 48.630,197.900 48.699 M186.200 49.211 C 185.472 49.402,186.102 49.441,187.800 49.309 C 189.340 49.189,190.675 49.025,190.767 48.945 C 191.073 48.678,187.416 48.891,186.200 49.211 M214.833 48.951 C 214.925 49.034,216.260 49.202,217.800 49.326 C 219.952 49.498,220.230 49.469,219.000 49.198 C 217.383 48.842,214.526 48.673,214.833 48.951 M179.600 50.013 C 178.954 50.229,179.380 50.266,180.800 50.119 C 182.010 49.994,183.075 49.826,183.167 49.746 C 183.487 49.465,180.591 49.683,179.600 50.013 M223.800 50.001 C 225.201 50.264,226.736 50.531,231.800 51.396 C 232.460 51.509,232.100 51.349,231.000 51.040 C 228.321 50.289,224.379 49.588,223.176 49.650 C 222.554 49.682,222.781 49.809,223.800 50.001 M174.500 50.848 C 173.785 51.054,173.200 51.320,173.200 51.438 C 173.200 51.557,173.576 51.535,174.036 51.389 C 174.495 51.243,175.710 50.982,176.736 50.809 C 178.369 50.533,178.427 50.493,177.200 50.483 C 176.430 50.477,175.215 50.641,174.500 50.848 M169.400 52.010 C 168.866 52.247,169.198 52.286,170.400 52.127 C 171.390 51.996,172.275 51.824,172.367 51.744 C 172.714 51.443,170.164 51.672,169.400 52.010 M233.233 51.743 C 233.325 51.822,234.120 51.997,235.000 52.132 C 236.090 52.299,236.409 52.255,236.000 51.995 C 235.453 51.646,232.845 51.409,233.233 51.743 M165.000 52.998 C 164.780 53.072,163.010 53.613,161.068 54.201 C 159.125 54.788,157.605 55.339,157.691 55.424 C 157.777 55.510,159.366 55.119,161.224 54.555 C 165.984 53.110,166.681 52.863,166.000 52.863 C 165.670 52.863,165.220 52.924,165.000 52.998 M239.800 53.200 C 240.240 53.389,240.870 53.544,241.200 53.544 C 241.578 53.544,241.504 53.417,241.000 53.200 C 240.560 53.011,239.930 52.856,239.600 52.856 C 239.222 52.856,239.296 52.983,239.800 53.200 M243.400 54.212 C 245.473 54.958,246.194 54.940,244.454 54.184 C 243.714 53.863,242.814 53.608,242.454 53.618 C 242.094 53.627,242.520 53.895,243.400 54.212 M153.470 56.581 C 152.629 56.881,151.819 57.261,151.670 57.427 C 151.522 57.592,151.760 57.589,152.200 57.420 C 152.640 57.251,153.585 56.944,154.300 56.738 C 155.015 56.531,155.600 56.281,155.600 56.181 C 155.600 55.901,155.129 55.989,153.470 56.581 M251.000 56.555 C 251.660 56.855,252.650 57.211,253.200 57.346 C 254.003 57.543,253.964 57.484,253.000 57.045 C 252.340 56.745,251.350 56.389,250.800 56.254 C 249.997 56.057,250.036 56.116,251.000 56.555 M149.424 58.213 C 148.425 58.968,148.795 58.963,150.254 58.202 C 150.884 57.874,151.130 57.610,150.800 57.615 C 150.470 57.621,149.851 57.890,149.424 58.213 M255.200 58.200 C 255.750 58.514,256.380 58.772,256.600 58.772 C 256.820 58.772,256.550 58.514,256.000 58.200 C 255.450 57.886,254.820 57.628,254.600 57.628 C 254.380 57.628,254.650 57.886,255.200 58.200 M142.200 61.178 C 140.440 62.033,139.110 62.747,139.243 62.766 C 139.377 62.785,140.997 62.090,142.843 61.223 C 144.690 60.355,146.020 59.640,145.800 59.635 C 145.580 59.629,143.960 60.323,142.200 61.178 M263.000 61.399 C 265.200 62.380,268.260 63.829,269.800 64.619 C 271.340 65.409,272.240 65.751,271.800 65.380 C 270.716 64.465,260.312 59.594,259.472 59.608 C 259.212 59.613,260.800 60.419,263.000 61.399 M134.174 65.047 C 130.316 67.042,126.800 69.159,126.800 69.488 C 126.800 69.600,127.295 69.364,127.900 68.963 C 129.527 67.884,136.814 64.000,137.211 64.000 C 137.399 64.000,137.664 63.820,137.800 63.600 C 138.172 62.997,138.028 63.055,134.174 65.047 M275.222 67.526 C 276.200 68.145,278.170 69.326,279.600 70.149 C 281.030 70.973,283.599 72.616,285.310 73.801 C 287.020 74.986,288.304 75.768,288.162 75.539 C 287.673 74.747,274.639 66.458,273.822 66.418 C 273.614 66.408,274.244 66.907,275.222 67.526 M121.998 72.221 C 119.909 73.662,117.480 75.322,116.600 75.909 C 113.338 78.087,104.950 84.972,103.811 86.407 C 103.378 86.953,103.828 86.664,104.811 85.766 C 109.563 81.423,114.954 77.323,122.766 72.112 C 124.837 70.731,126.366 69.600,126.164 69.600 C 125.962 69.600,124.088 70.779,121.998 72.221 M201.511 75.093 C 202.451 75.178,203.891 75.177,204.711 75.091 C 205.530 75.005,204.760 74.936,203.000 74.937 C 201.240 74.939,200.570 75.009,201.511 75.093 M191.700 75.476 C 192.085 75.576,192.715 75.576,193.100 75.476 C 193.485 75.375,193.170 75.293,192.400 75.293 C 191.630 75.293,191.315 75.375,191.700 75.476 M212.305 75.483 C 212.802 75.579,213.522 75.575,213.905 75.475 C 214.287 75.375,213.880 75.296,213.000 75.301 C 212.120 75.305,211.807 75.387,212.305 75.483 M185.105 76.283 C 185.602 76.379,186.322 76.375,186.705 76.275 C 187.087 76.175,186.680 76.096,185.800 76.101 C 184.920 76.105,184.607 76.187,185.105 76.283 M218.700 76.282 C 219.195 76.378,220.005 76.378,220.500 76.282 C 220.995 76.187,220.590 76.109,219.600 76.109 C 218.610 76.109,218.205 76.187,218.700 76.282 M291.373 78.035 C 292.239 78.786,293.436 79.760,294.034 80.200 C 300.984 85.310,311.477 95.852,319.727 106.012 L 320.854 107.400 319.940 106.000 C 316.891 101.329,303.975 87.750,298.043 82.978 C 292.078 78.180,288.395 75.450,291.373 78.035 M231.800 78.800 C 232.240 78.989,232.870 79.144,233.200 79.144 C 233.578 79.144,233.504 79.017,233.000 78.800 C 232.560 78.611,231.930 78.456,231.600 78.456 C 231.222 78.456,231.296 78.583,231.800 78.800 M162.400 81.800 C 161.094 82.547,161.551 82.555,163.254 81.816 C 163.994 81.494,164.330 81.231,164.000 81.230 C 163.670 81.229,162.950 81.486,162.400 81.800 M250.400 85.000 C 251.390 85.530,252.380 85.964,252.600 85.964 C 252.820 85.964,252.190 85.530,251.200 85.000 C 250.210 84.470,249.220 84.036,249.000 84.036 C 248.780 84.036,249.410 84.470,250.400 85.000 M97.166 92.700 C 91.748 98.246,88.708 101.766,83.951 108.000 C 81.138 111.687,80.651 112.400,80.944 112.400 C 81.050 112.400,82.036 111.185,83.135 109.700 C 88.774 102.086,91.055 99.409,97.958 92.304 C 100.685 89.497,102.831 87.200,102.727 87.200 C 102.623 87.200,100.121 89.675,97.166 92.700 M147.119 88.357 C 144.519 89.838,144.165 90.321,146.600 89.064 C 148.949 87.852,149.958 87.198,149.400 87.249 C 149.180 87.269,148.154 87.768,147.119 88.357 M256.000 87.379 C 256.000 87.489,256.540 87.859,257.200 88.200 C 257.860 88.541,258.400 88.731,258.400 88.621 C 258.400 88.511,257.860 88.141,257.200 87.800 C 256.540 87.459,256.000 87.269,256.000 87.379 M262.000 90.520 C 262.000 90.611,263.125 91.370,264.500 92.205 C 267.564 94.067,267.600 94.087,267.600 93.880 C 267.600 93.789,266.475 93.030,265.100 92.195 C 262.036 90.333,262.000 90.313,262.000 90.520 M268.000 94.176 C 268.000 94.286,269.350 95.287,271.000 96.400 C 272.650 97.513,274.000 98.334,274.000 98.224 C 274.000 98.114,272.650 97.113,271.000 96.000 C 269.350 94.887,268.000 94.066,268.000 94.176 M126.000 102.457 L 123.800 104.489 125.899 102.808 C 127.739 101.334,128.713 100.373,128.324 100.413 C 128.256 100.420,127.210 101.340,126.000 102.457 M278.200 101.564 C 279.036 102.529,282.000 104.983,282.000 104.710 C 282.000 104.623,280.965 103.672,279.700 102.597 C 278.435 101.521,277.760 101.056,278.200 101.564 M119.200 108.377 C 116.890 110.548,115.090 112.387,115.200 112.462 C 115.310 112.538,117.290 110.758,119.600 108.507 C 124.952 103.291,124.698 103.209,119.200 108.377 M282.762 105.443 C 282.985 105.907,283.670 106.593,284.284 106.967 L 285.400 107.647 284.427 106.801 C 283.892 106.335,283.207 105.649,282.905 105.277 C 282.414 104.671,282.398 104.688,282.762 105.443 M323.027 110.770 C 324.242 112.532,325.403 114.078,325.608 114.205 C 325.812 114.331,324.987 112.993,323.773 111.230 C 322.558 109.468,321.397 107.922,321.192 107.795 C 320.988 107.669,321.813 109.007,323.027 110.770 M286.800 109.400 C 287.546 110.170,288.247 110.800,288.357 110.800 C 288.467 110.800,287.946 110.170,287.200 109.400 C 286.454 108.630,285.753 108.000,285.643 108.000 C 285.533 108.000,286.054 108.630,286.800 109.400 M292.468 115.248 C 297.063 120.555,298.200 121.993,301.270 126.382 C 304.835 131.479,306.108 132.959,303.579 129.066 C 300.302 124.022,295.847 118.388,291.825 114.200 C 289.431 111.707,289.502 111.822,292.468 115.248 M78.391 116.100 C 77.230 117.915,75.971 119.856,75.593 120.412 C 74.743 121.664,73.129 124.800,73.335 124.800 C 73.418 124.800,74.354 123.315,75.416 121.500 C 76.478 119.685,78.002 117.210,78.803 116.000 C 80.635 113.235,80.889 112.800,80.674 112.800 C 80.579 112.800,79.551 114.285,78.391 116.100 M112.800 115.000 C 111.828 115.990,111.123 116.800,111.233 116.800 C 111.343 116.800,112.228 115.990,113.200 115.000 C 114.172 114.010,114.877 113.200,114.767 113.200 C 114.657 113.200,113.772 114.010,112.800 115.000 M327.009 116.626 C 327.381 117.301,328.041 118.291,328.476 118.826 L 329.267 119.800 328.591 118.574 C 328.219 117.899,327.559 116.909,327.124 116.374 L 326.333 115.400 327.009 116.626 M152.500 123.487 C 153.105 123.578,154.095 123.578,154.700 123.487 C 155.305 123.395,154.810 123.320,153.600 123.320 C 152.390 123.320,151.895 123.395,152.500 123.487 M148.400 124.200 C 147.122 124.930,147.396 124.934,149.400 124.212 C 150.280 123.895,150.640 123.634,150.200 123.632 C 149.760 123.630,148.950 123.886,148.400 124.200 M158.500 123.887 C 159.105 123.978,160.095 123.978,160.700 123.887 C 161.305 123.795,160.810 123.720,159.600 123.720 C 158.390 123.720,157.895 123.795,158.500 123.887 M166.612 125.664 C 168.173 127.035,169.387 129.189,170.806 133.110 C 171.305 134.490,171.786 135.548,171.873 135.461 C 172.536 134.798,168.295 126.264,166.759 125.171 C 165.091 123.983,165.010 124.257,166.612 125.664 M143.978 126.975 C 140.349 130.037,136.293 134.614,135.242 136.833 C 134.854 137.652,134.861 137.688,135.292 137.064 C 137.905 133.282,142.737 128.120,145.619 126.032 C 146.555 125.354,147.148 124.800,146.938 124.800 C 146.728 124.800,145.396 125.779,143.978 126.975 M332.881 126.591 C 333.359 127.576,333.819 128.314,333.903 128.230 C 334.084 128.049,332.468 124.800,332.197 124.800 C 332.094 124.800,332.402 125.606,332.881 126.591 M70.179 130.441 C 69.392 132.004,68.814 133.347,68.894 133.427 C 68.973 133.507,69.703 132.228,70.516 130.586 C 71.329 128.944,71.907 127.600,71.802 127.600 C 71.696 127.600,70.966 128.878,70.179 130.441 M335.000 130.800 C 335.341 131.460,335.711 132.000,335.821 132.000 C 335.931 132.000,335.741 131.460,335.400 130.800 C 335.059 130.140,334.689 129.600,334.579 129.600 C 334.469 129.600,334.659 130.140,335.000 130.800 M99.552 132.500 C 99.290 132.995,98.815 133.850,98.496 134.400 C 97.939 135.359,97.943 135.367,98.588 134.600 C 99.386 133.652,100.505 131.600,100.224 131.600 C 100.116 131.600,99.814 132.005,99.552 132.500 M305.600 132.516 C 305.600 132.653,306.172 133.718,306.870 134.882 C 307.569 136.047,309.185 138.980,310.461 141.400 C 313.069 146.345,313.640 146.850,311.243 142.091 C 309.079 137.795,305.600 131.892,305.600 132.516 M336.028 132.600 C 336.028 132.820,336.286 133.450,336.600 134.000 C 336.914 134.550,337.172 134.820,337.172 134.600 C 337.172 134.380,336.914 133.750,336.600 133.200 C 336.286 132.650,336.028 132.380,336.028 132.600 M67.417 136.200 C 66.046 139.300,66.169 139.560,67.622 136.632 C 68.268 135.329,68.715 134.182,68.615 134.082 C 68.516 133.982,67.976 134.935,67.417 136.200 M96.200 138.400 C 95.859 139.060,95.669 139.600,95.779 139.600 C 95.889 139.600,96.259 139.060,96.600 138.400 C 96.941 137.740,97.131 137.200,97.021 137.200 C 96.911 137.200,96.541 137.740,96.200 138.400 M134.096 138.500 C 133.516 139.223,131.523 143.257,131.673 143.405 C 131.743 143.474,132.466 142.286,133.281 140.765 C 134.708 138.099,134.943 137.445,134.096 138.500 M64.556 143.043 C 64.224 143.837,64.026 144.559,64.114 144.648 C 64.203 144.736,64.559 144.087,64.905 143.204 C 65.689 141.209,65.382 141.068,64.556 143.043 M341.214 145.254 C 341.206 145.394,341.463 146.114,341.784 146.854 C 342.106 147.594,342.369 147.930,342.370 147.600 C 342.372 147.024,341.243 144.734,341.214 145.254 M312.823 146.031 C 312.791 146.354,314.602 150.749,315.365 152.200 C 315.711 152.860,315.996 153.200,315.998 152.957 C 316.000 152.486,312.861 145.638,312.823 146.031 M91.665 147.417 C 90.995 148.888,91.123 149.202,91.847 147.865 C 92.186 147.240,92.388 146.654,92.296 146.563 C 92.205 146.471,91.921 146.856,91.665 147.417 M129.869 148.300 C 129.298 149.263,128.377 155.792,128.501 158.000 L 128.646 160.600 128.723 157.800 C 128.794 155.258,129.623 150.248,130.240 148.641 C 130.486 147.998,130.203 147.737,129.869 148.300 M61.284 152.868 C 60.573 155.140,60.005 157.180,60.022 157.400 C 60.040 157.620,60.672 155.910,61.427 153.600 C 62.182 151.290,62.750 149.250,62.689 149.068 C 62.628 148.885,61.996 150.595,61.284 152.868 M317.032 156.900 C 317.799 159.321,318.745 161.754,318.771 161.378 C 318.811 160.800,317.173 156.000,316.936 156.000 C 316.832 156.000,316.875 156.405,317.032 156.900 M87.915 157.010 C 87.792 157.445,87.569 158.160,87.420 158.600 C 87.271 159.040,87.442 158.894,87.800 158.276 C 88.158 157.658,88.381 156.942,88.295 156.686 C 88.210 156.430,88.039 156.576,87.915 157.010 M180.634 159.565 C 180.796 159.876,181.061 160.686,181.223 161.365 C 181.494 162.500,181.521 162.518,181.559 161.576 C 181.582 161.014,181.317 160.204,180.970 159.776 C 180.624 159.349,180.473 159.254,180.634 159.565 M59.000 161.200 C 58.848 161.891,58.807 162.541,58.909 162.642 C 59.011 162.744,59.209 162.253,59.350 161.550 C 59.683 159.883,59.360 159.560,59.000 161.200 M128.462 163.800 C 128.399 166.693,129.203 171.404,130.237 174.200 C 130.886 175.954,130.768 175.171,129.783 171.200 C 129.429 169.770,129.000 166.890,128.831 164.800 C 128.523 161.001,128.523 161.001,128.462 163.800 M58.044 165.467 C 57.758 166.334,57.606 167.483,57.707 168.021 C 57.856 168.811,57.902 168.744,57.946 167.674 C 57.975 166.944,58.192 165.989,58.426 165.552 C 58.660 165.114,58.787 164.561,58.708 164.324 C 58.629 164.086,58.330 164.601,58.044 165.467 M57.056 170.084 C 56.921 170.588,56.827 171.360,56.846 171.800 C 56.865 172.240,57.045 171.898,57.246 171.040 C 57.636 169.378,57.470 168.540,57.056 170.084 M320.868 170.600 C 320.862 171.040,321.011 171.760,321.200 172.200 C 321.638 173.219,321.638 172.168,321.200 170.800 C 320.943 169.996,320.877 169.957,320.868 170.600 M177.026 172.313 C 175.615 174.003,175.588 174.075,176.760 173.000 C 177.871 171.982,179.088 170.370,178.714 170.413 C 178.651 170.420,177.892 171.275,177.026 172.313 M56.266 175.168 C 56.119 176.578,56.074 177.807,56.166 177.900 C 56.414 178.147,56.915 173.746,56.710 173.130 C 56.613 172.840,56.414 173.757,56.266 175.168 M321.634 174.200 C 321.603 175.475,322.348 178.585,322.620 178.314 C 322.708 178.225,322.529 176.993,322.222 175.576 C 321.869 173.949,321.653 173.442,321.634 174.200 M173.975 175.900 C 171.143 178.964,170.256 180.000,170.467 180.000 C 170.586 180.000,171.803 178.740,173.172 177.200 C 175.778 174.268,176.369 173.311,173.975 175.900 M349.324 178.600 C 349.326 179.920,349.401 180.412,349.490 179.693 C 349.579 178.974,349.577 177.894,349.486 177.293 C 349.395 176.692,349.322 177.280,349.324 178.600 M55.737 181.800 C 55.739 183.560,55.809 184.230,55.893 183.289 C 55.978 182.349,55.977 180.909,55.891 180.089 C 55.805 179.270,55.736 180.040,55.737 181.800 M131.688 179.200 C 132.426 181.257,134.543 185.991,134.668 185.865 C 134.837 185.697,132.090 179.139,131.713 178.810 C 131.581 178.694,131.569 178.870,131.688 179.200 M322.920 182.000 C 322.920 183.210,322.995 183.705,323.087 183.100 C 323.178 182.495,323.178 181.505,323.087 180.900 C 322.995 180.295,322.920 180.790,322.920 182.000 M82.128 185.600 C 82.128 187.030,82.201 187.615,82.289 186.900 C 82.378 186.185,82.378 185.015,82.289 184.300 C 82.201 183.585,82.128 184.170,82.128 185.600 M323.293 185.600 C 323.293 186.370,323.375 186.685,323.476 186.300 C 323.576 185.915,323.576 185.285,323.476 184.900 C 323.375 184.515,323.293 184.830,323.293 185.600 M350.124 186.600 C 350.126 187.920,350.201 188.412,350.290 187.693 C 350.379 186.974,350.377 185.894,350.286 185.293 C 350.195 184.692,350.122 185.280,350.124 186.600 M55.050 187.650 C 54.715 189.323,54.773 202.991,55.123 204.960 C 55.276 205.818,55.401 201.993,55.400 196.460 C 55.400 190.927,55.377 186.400,55.350 186.400 C 55.323 186.400,55.188 186.963,55.050 187.650 M323.770 196.200 C 323.771 201.040,323.829 202.965,323.899 200.478 C 323.969 197.991,323.969 194.031,323.898 191.678 C 323.828 189.325,323.770 191.360,323.770 196.200 M135.606 188.153 C 135.599 188.569,137.185 191.200,137.443 191.200 C 137.541 191.200,137.353 190.705,137.025 190.100 C 136.156 188.496,135.613 187.750,135.606 188.153 M81.737 191.400 C 81.739 193.160,81.809 193.830,81.893 192.889 C 81.978 191.949,81.977 190.509,81.891 189.689 C 81.805 188.870,81.736 189.640,81.737 191.400 M138.998 194.200 C 139.550 195.300,140.338 196.650,140.748 197.200 C 141.158 197.750,142.157 199.235,142.968 200.500 C 143.779 201.765,144.534 202.800,144.645 202.800 C 144.884 202.800,144.632 202.348,143.197 200.200 C 142.608 199.320,141.424 197.496,140.564 196.147 C 138.106 192.291,137.926 192.067,138.998 194.200 M81.301 196.200 C 81.305 197.080,81.387 197.393,81.483 196.895 C 81.579 196.398,81.575 195.678,81.475 195.295 C 81.375 194.913,81.296 195.320,81.301 196.200 M81.737 201.000 C 81.739 202.760,81.809 203.430,81.893 202.489 C 81.978 201.549,81.977 200.109,81.891 199.289 C 81.805 198.470,81.736 199.240,81.737 201.000 M178.396 200.900 C 179.341 202.165,180.188 203.200,180.277 203.200 C 180.565 203.200,178.089 199.772,177.372 199.177 C 176.989 198.860,177.450 199.635,178.396 200.900 M145.254 203.990 C 145.513 204.535,146.912 206.673,148.362 208.741 C 149.813 210.810,151.518 213.244,152.152 214.151 C 152.786 215.058,153.866 216.451,154.552 217.247 C 155.238 218.043,156.700 219.836,157.800 221.231 C 162.662 227.399,175.639 240.438,180.172 243.711 C 182.299 245.246,180.800 243.634,178.074 241.454 C 168.221 233.574,155.883 219.383,145.292 203.750 C 144.865 203.120,144.859 203.158,145.254 203.990 M350.124 205.400 C 350.126 206.720,350.201 207.212,350.290 206.493 C 350.379 205.774,350.377 204.694,350.286 204.093 C 350.195 203.492,350.122 204.080,350.124 205.400 M181.164 204.333 C 181.380 204.736,181.871 205.321,182.255 205.633 C 182.687 205.984,182.590 205.704,182.001 204.900 C 180.951 203.465,180.557 203.198,181.164 204.333 M82.128 206.800 C 82.128 208.230,82.201 208.815,82.289 208.100 C 82.378 207.385,82.378 206.215,82.289 205.500 C 82.201 204.785,82.128 205.370,82.128 206.800 M323.293 206.400 C 323.293 207.170,323.375 207.485,323.476 207.100 C 323.576 206.715,323.576 206.085,323.476 205.700 C 323.375 205.315,323.293 205.630,323.293 206.400 M184.378 208.137 C 185.137 208.942,185.822 209.600,185.901 209.600 C 186.261 209.600,184.777 207.862,183.937 207.300 C 183.318 206.886,183.468 207.170,184.378 208.137 M55.740 210.400 C 55.740 212.270,55.809 213.035,55.893 212.100 C 55.977 211.165,55.977 209.635,55.893 208.700 C 55.809 207.765,55.740 208.530,55.740 210.400 M322.920 210.000 C 322.920 211.210,322.995 211.705,323.087 211.100 C 323.178 210.495,323.178 209.505,323.087 208.900 C 322.995 208.295,322.920 208.790,322.920 210.000 M187.200 210.963 C 187.904 211.859,193.988 217.321,196.006 218.869 C 200.589 222.385,203.929 224.703,203.000 223.725 C 202.659 223.366,200.793 221.946,195.246 217.823 C 194.671 217.395,192.490 215.505,190.400 213.623 C 188.310 211.740,186.870 210.544,187.200 210.963 M349.320 213.600 C 349.320 214.810,349.395 215.305,349.487 214.700 C 349.578 214.095,349.578 213.105,349.487 212.500 C 349.395 211.895,349.320 212.390,349.320 213.600 M322.239 214.641 C 322.097 215.013,321.807 216.416,321.594 217.759 C 321.382 219.101,321.116 220.740,321.004 221.400 C 320.891 222.060,321.051 221.700,321.360 220.600 C 322.360 217.040,323.010 212.633,322.239 214.641 M239.336 214.653 C 239.081 214.757,237.739 216.228,236.354 217.921 C 225.760 230.872,222.581 233.555,219.403 232.227 C 218.564 231.876,217.807 231.659,217.722 231.745 C 217.312 232.155,221.082 233.235,222.181 233.023 C 223.339 232.799,225.881 230.649,227.946 228.146 C 228.467 227.516,230.094 225.650,231.563 224.000 C 233.032 222.350,235.294 219.699,236.589 218.109 C 237.885 216.519,239.407 215.049,239.972 214.841 C 240.537 214.633,240.730 214.463,240.400 214.463 C 240.070 214.463,239.591 214.549,239.336 214.653 M245.400 215.012 C 247.404 215.734,247.678 215.730,246.400 215.000 C 245.850 214.686,245.040 214.430,244.600 214.432 C 244.160 214.434,244.520 214.695,245.400 215.012 M56.509 218.000 C 56.509 218.990,56.587 219.395,56.682 218.900 C 56.778 218.405,56.778 217.595,56.682 217.100 C 56.587 216.605,56.509 217.010,56.509 218.000 M253.400 218.736 C 257.563 221.085,262.418 223.552,262.208 223.212 C 262.087 223.018,259.722 221.676,256.952 220.229 C 251.821 217.551,249.778 216.692,253.400 218.736 M56.841 220.376 C 56.769 221.383,57.682 225.748,58.268 227.200 C 58.579 227.970,58.721 228.150,58.583 227.600 C 58.446 227.050,58.164 225.700,57.957 224.600 C 57.408 221.682,56.888 219.715,56.841 220.376 M262.833 223.739 C 263.412 224.224,268.394 226.713,268.219 226.431 C 267.987 226.056,263.416 223.600,262.950 223.600 C 262.794 223.600,262.742 223.663,262.833 223.739 M203.600 224.115 C 203.600 224.206,204.533 224.860,205.673 225.569 C 206.813 226.278,207.543 226.613,207.296 226.315 C 206.824 225.747,203.600 223.827,203.600 224.115 M208.033 226.944 C 208.538 227.380,215.302 230.832,215.420 230.714 C 215.577 230.557,208.600 226.800,208.152 226.800 C 207.995 226.800,207.942 226.865,208.033 226.944 M273.478 229.524 C 275.722 230.796,277.972 232.189,278.478 232.619 L 279.400 233.400 278.651 232.515 C 277.929 231.660,270.433 227.194,269.740 227.206 C 269.553 227.209,271.235 228.252,273.478 229.524 M58.828 230.033 C 58.844 230.565,59.019 231.360,59.219 231.800 C 59.471 232.358,59.507 232.115,59.338 231.000 C 59.055 229.143,58.787 228.636,58.828 230.033 M318.091 232.100 C 317.410 233.984,317.504 234.494,318.226 232.830 C 318.553 232.077,318.766 231.299,318.701 231.102 C 318.635 230.905,318.360 231.354,318.091 232.100 M87.214 233.254 C 87.206 233.394,87.463 234.114,87.784 234.854 C 88.106 235.594,88.369 235.930,88.370 235.600 C 88.372 235.024,87.243 232.734,87.214 233.254 M60.021 235.108 C 59.993 235.790,62.489 243.245,62.681 243.053 C 62.764 242.970,62.204 241.034,61.437 238.751 C 60.669 236.468,60.032 234.829,60.021 235.108 M88.414 236.454 C 88.406 236.594,88.663 237.314,88.984 238.054 C 89.306 238.794,89.569 239.130,89.570 238.800 C 89.572 238.224,88.443 235.934,88.414 236.454 M314.469 242.069 C 313.549 244.302,312.861 246.194,312.939 246.273 C 313.018 246.352,313.837 244.590,314.759 242.359 C 315.680 240.127,316.369 238.235,316.288 238.155 C 316.208 238.074,315.389 239.836,314.469 242.069 M279.293 242.000 C 279.293 242.770,279.375 243.085,279.476 242.700 C 279.576 242.315,279.576 241.685,279.476 241.300 C 279.375 240.915,279.293 241.230,279.293 242.000 M183.164 245.735 C 183.749 246.463,186.000 248.177,186.000 247.894 C 186.000 247.806,185.235 247.126,184.300 246.383 C 183.365 245.640,182.854 245.348,183.164 245.735 M63.806 246.918 C 64.093 248.386,65.968 252.385,65.986 251.567 C 65.994 251.218,65.869 250.803,65.710 250.643 C 65.550 250.483,65.007 249.328,64.503 248.076 C 64.000 246.824,63.686 246.303,63.806 246.918 M311.489 248.781 C 310.890 249.846,310.402 250.871,310.404 251.059 C 310.406 251.247,310.959 250.438,311.633 249.263 C 312.307 248.087,312.795 247.062,312.718 246.985 C 312.641 246.907,312.088 247.716,311.489 248.781 M187.600 248.946 C 187.600 249.056,188.140 249.530,188.800 250.000 C 189.460 250.470,190.000 250.764,190.000 250.654 C 190.000 250.544,189.460 250.070,188.800 249.600 C 188.140 249.130,187.600 248.836,187.600 248.946 M276.865 251.017 C 276.195 252.488,276.323 252.802,277.047 251.465 C 277.386 250.840,277.588 250.254,277.496 250.163 C 277.405 250.071,277.121 250.456,276.865 251.017 M95.669 253.000 C 96.324 254.210,96.940 255.200,97.037 255.200 C 97.315 255.200,95.258 251.283,94.846 251.029 C 94.643 250.903,95.013 251.790,95.669 253.000 M191.200 251.350 C 191.200 251.444,191.841 251.899,192.624 252.361 C 193.407 252.823,193.936 253.020,193.799 252.798 C 193.531 252.364,191.200 251.066,191.200 251.350 M338.672 253.419 C 337.732 255.389,337.864 255.724,338.847 253.862 C 339.293 253.016,339.587 252.254,339.501 252.167 C 339.414 252.081,339.041 252.644,338.672 253.419 M66.228 253.200 C 66.568 254.451,69.296 260.038,69.477 259.856 C 69.551 259.783,68.788 258.030,67.783 255.961 C 66.778 253.893,66.078 252.650,66.228 253.200 M194.400 253.384 C 194.400 253.494,195.120 253.951,196.000 254.400 C 196.880 254.849,197.600 255.126,197.600 255.016 C 197.600 254.906,196.880 254.449,196.000 254.000 C 195.120 253.551,194.400 253.274,194.400 253.384 M307.157 256.900 C 306.000 258.935,304.663 261.140,304.186 261.800 C 303.130 263.260,302.701 264.000,302.910 264.000 C 303.277 264.000,306.650 258.609,309.481 253.500 C 309.572 253.335,309.560 253.200,309.454 253.200 C 309.347 253.200,308.314 254.865,307.157 256.900 M199.600 256.196 C 199.600 256.470,202.049 257.684,202.232 257.501 C 202.319 257.414,201.762 257.044,200.995 256.678 C 200.228 256.312,199.600 256.095,199.600 256.196 M69.627 260.600 C 69.638 260.820,70.042 261.739,70.524 262.643 C 73.580 268.375,74.446 269.930,75.176 271.000 C 75.626 271.660,75.996 272.011,75.997 271.780 C 75.999 271.549,75.834 271.189,75.631 270.980 C 75.428 270.771,73.990 268.260,72.435 265.400 C 70.879 262.540,69.616 260.380,69.627 260.600 M210.000 261.000 C 210.550 261.314,211.180 261.572,211.400 261.572 C 211.620 261.572,211.350 261.314,210.800 261.000 C 210.250 260.686,209.620 260.428,209.400 260.428 C 209.180 260.428,209.450 260.686,210.000 261.000 M335.000 261.600 C 334.659 262.260,334.469 262.800,334.579 262.800 C 334.689 262.800,335.059 262.260,335.400 261.600 C 335.741 260.940,335.931 260.400,335.821 260.400 C 335.711 260.400,335.341 260.940,335.000 261.600 M102.032 263.600 C 103.503 265.697,104.603 266.917,103.744 265.500 C 103.008 264.284,100.707 261.200,100.537 261.200 C 100.434 261.200,101.106 262.280,102.032 263.600 M264.420 264.031 C 263.440 264.674,262.814 265.200,263.027 265.200 C 263.464 265.200,266.400 263.272,266.400 262.986 C 266.400 262.729,266.414 262.722,264.420 264.031 M299.738 268.069 C 298.232 270.087,296.670 272.157,296.267 272.669 C 295.863 273.181,295.607 273.600,295.697 273.600 C 295.909 273.600,299.417 269.200,301.358 266.500 C 303.912 262.947,302.641 264.178,299.738 268.069 M259.600 266.600 C 258.610 267.130,257.942 267.572,258.116 267.582 C 258.541 267.606,261.600 266.034,261.600 265.792 C 261.600 265.527,261.617 265.520,259.600 266.600 M332.082 267.227 C 331.584 268.092,331.257 268.800,331.355 268.800 C 331.631 268.800,333.312 265.979,333.139 265.806 C 333.055 265.722,332.580 266.362,332.082 267.227 M249.900 269.482 C 250.395 269.578,251.205 269.578,251.700 269.482 C 252.195 269.387,251.790 269.309,250.800 269.309 C 249.810 269.309,249.405 269.387,249.900 269.482 M235.600 269.982 C 235.930 270.205,236.545 270.391,236.967 270.394 C 237.990 270.402,237.671 270.173,236.200 269.844 C 235.324 269.648,235.162 269.685,235.600 269.982 M246.800 270.000 C 245.976 270.264,245.941 270.326,246.600 270.354 C 247.040 270.373,247.670 270.213,248.000 270.000 C 248.701 269.547,248.214 269.547,246.800 270.000 M329.692 271.335 C 329.259 272.069,328.589 273.194,328.205 273.835 L 327.505 275.000 328.333 274.000 C 329.279 272.857,330.944 270.000,330.665 270.000 C 330.563 270.000,330.125 270.601,329.692 271.335 M240.112 270.695 C 241.164 270.777,242.784 270.776,243.712 270.692 C 244.640 270.608,243.780 270.541,241.800 270.542 C 239.820 270.543,239.060 270.612,240.112 270.695 M74.900 274.700 C 74.413 275.937,74.078 277.011,74.155 277.089 C 74.232 277.166,74.702 276.226,75.200 275.000 C 75.698 273.774,76.033 272.699,75.945 272.611 C 75.857 272.524,75.387 273.463,74.900 274.700 M289.111 280.405 C 285.652 283.909,280.972 288.228,278.711 290.001 C 272.859 294.591,271.272 296.016,275.000 293.333 C 281.025 288.996,297.158 273.827,295.542 274.017 C 295.464 274.026,292.570 276.901,289.111 280.405 M324.723 279.100 C 324.018 279.921,323.490 280.800,323.701 280.800 C 323.783 280.800,324.249 280.260,324.737 279.600 C 325.701 278.296,325.692 277.972,324.723 279.100 M71.990 283.026 C 71.776 283.590,71.600 284.300,71.600 284.602 C 71.600 284.905,71.420 285.264,71.200 285.400 C 70.980 285.536,70.805 285.952,70.812 286.324 C 70.830 287.320,71.483 286.116,72.179 283.803 C 72.762 281.867,72.633 281.336,71.990 283.026 M320.049 285.700 C 318.688 287.515,318.166 288.346,318.888 287.547 C 320.319 285.962,322.949 282.400,322.687 282.400 C 322.597 282.400,321.410 283.885,320.049 285.700 M99.115 284.610 C 98.992 285.045,98.769 285.760,98.620 286.200 C 98.471 286.640,98.642 286.494,99.000 285.876 C 99.358 285.258,99.581 284.542,99.495 284.286 C 99.410 284.030,99.239 284.176,99.115 284.610 M315.027 291.905 C 313.846 293.278,313.580 293.718,314.363 293.000 C 315.550 291.913,317.439 289.593,317.127 289.605 C 317.057 289.608,316.112 290.643,315.027 291.905 M67.624 296.024 C 67.134 297.367,66.812 298.546,66.909 298.643 C 67.006 298.740,67.487 297.720,67.976 296.376 C 68.466 295.033,68.788 293.854,68.691 293.757 C 68.594 293.660,68.113 294.680,67.624 296.024 M311.200 296.200 C 310.228 297.190,309.523 298.000,309.633 298.000 C 309.743 298.000,310.628 297.190,311.600 296.200 C 312.572 295.210,313.277 294.400,313.167 294.400 C 313.057 294.400,312.172 295.210,311.200 296.200 M95.067 296.467 C 94.705 297.388,94.474 298.207,94.554 298.288 C 94.634 298.368,95.000 297.683,95.367 296.767 C 95.733 295.850,95.964 295.031,95.879 294.946 C 95.794 294.861,95.429 295.545,95.067 296.467 M268.846 297.233 C 267.501 298.131,266.400 298.952,266.400 299.057 C 266.400 299.291,266.852 299.025,269.400 297.290 C 271.597 295.794,271.839 295.600,271.512 295.600 C 271.391 295.600,270.191 296.335,268.846 297.233 M132.500 297.612 C 132.005 297.811,131.600 298.089,131.600 298.230 C 131.600 298.371,131.915 298.354,132.300 298.193 C 132.685 298.033,133.540 297.762,134.200 297.591 C 135.288 297.311,135.307 297.280,134.400 297.266 C 133.850 297.258,132.995 297.413,132.500 297.612 M136.378 297.641 C 136.917 297.856,137.555 298.160,137.797 298.316 C 138.040 298.472,137.894 298.285,137.475 297.900 C 137.055 297.515,136.416 297.211,136.056 297.225 C 135.641 297.241,135.760 297.394,136.378 297.641 M138.800 298.979 C 138.800 299.089,139.340 299.459,140.000 299.800 C 140.660 300.141,141.200 300.331,141.200 300.221 C 141.200 300.111,140.660 299.741,140.000 299.400 C 139.340 299.059,138.800 298.869,138.800 298.979 M66.229 300.229 C 66.081 300.815,66.038 301.372,66.132 301.466 C 66.227 301.560,66.424 301.158,66.571 300.571 C 66.719 299.985,66.762 299.428,66.668 299.334 C 66.573 299.240,66.376 299.642,66.229 300.229 M263.045 300.812 C 261.994 301.479,259.709 302.741,257.967 303.617 C 256.225 304.492,254.800 305.299,254.800 305.409 C 254.800 305.696,260.179 302.965,262.900 301.296 C 264.922 300.057,265.508 299.600,265.078 299.600 C 265.011 299.600,264.097 300.145,263.045 300.812 M122.200 300.986 C 120.655 301.693,121.374 301.703,123.200 301.000 C 123.970 300.703,124.330 300.455,124.000 300.448 C 123.670 300.442,122.860 300.683,122.200 300.986 M141.829 300.847 C 141.957 301.055,144.073 302.227,146.531 303.453 C 148.989 304.678,150.820 305.509,150.600 305.298 C 149.962 304.687,141.570 300.428,141.829 300.847 M117.200 302.614 C 115.770 303.118,114.761 303.546,114.957 303.565 C 115.486 303.617,120.800 301.996,120.800 301.783 C 120.800 301.460,119.860 301.677,117.200 302.614 M64.900 304.300 C 64.413 305.537,64.078 306.611,64.155 306.689 C 64.232 306.766,64.702 305.826,65.200 304.600 C 65.698 303.374,66.033 302.299,65.945 302.211 C 65.857 302.124,65.387 303.063,64.900 304.300 M302.800 304.600 C 301.828 305.590,301.123 306.400,301.233 306.400 C 301.343 306.400,302.228 305.590,303.200 304.600 C 304.172 303.610,304.877 302.800,304.767 302.800 C 304.657 302.800,303.772 303.610,302.800 304.600 M112.600 303.990 C 112.160 304.174,111.209 304.546,110.487 304.817 C 109.765 305.087,109.235 305.369,109.310 305.443 C 109.443 305.576,114.039 304.033,114.367 303.746 C 114.675 303.476,113.408 303.651,112.600 303.990 M91.665 306.617 C 91.409 307.178,91.207 307.854,91.216 308.119 C 91.224 308.383,91.497 307.988,91.822 307.239 C 92.505 305.665,92.361 305.090,91.665 306.617 M248.904 307.765 C 245.903 309.105,244.583 309.927,246.630 309.181 C 248.422 308.527,252.652 306.468,252.200 306.470 C 251.980 306.471,250.497 307.053,248.904 307.765 M299.178 307.900 L 297.800 309.400 299.300 308.022 C 300.696 306.738,300.984 306.400,300.678 306.400 C 300.612 306.400,299.937 307.075,299.178 307.900 M156.600 308.219 C 158.140 308.961,159.580 309.560,159.800 309.550 C 160.020 309.540,158.940 308.924,157.400 308.181 C 155.860 307.439,154.420 306.840,154.200 306.850 C 153.980 306.860,155.060 307.476,156.600 308.219 M63.512 308.000 C 63.376 308.550,63.150 309.450,63.010 310.000 C 62.852 310.622,62.997 310.479,63.392 309.621 C 63.742 308.862,63.968 307.962,63.894 307.621 C 63.810 307.231,63.668 307.372,63.512 308.000 M239.845 311.110 C 237.450 311.909,235.650 312.611,235.845 312.668 C 236.040 312.726,238.270 312.072,240.800 311.216 C 243.330 310.359,245.130 309.657,244.800 309.657 C 244.470 309.656,242.240 310.310,239.845 311.110 M162.000 310.174 C 162.000 310.277,162.585 310.531,163.300 310.738 C 164.015 310.944,164.960 311.234,165.400 311.382 C 165.896 311.549,165.819 311.434,165.200 311.081 C 164.122 310.466,162.000 309.865,162.000 310.174 M167.546 312.216 C 168.286 312.537,169.096 312.793,169.346 312.784 C 169.596 312.776,169.194 312.506,168.454 312.184 C 167.714 311.863,166.904 311.607,166.654 311.616 C 166.404 311.624,166.806 311.894,167.546 312.216 M171.200 313.200 C 172.568 313.638,173.619 313.638,172.600 313.200 C 172.160 313.011,171.440 312.862,171.000 312.868 C 170.357 312.877,170.396 312.943,171.200 313.200 M233.000 313.200 C 232.496 313.417,232.422 313.544,232.800 313.544 C 233.130 313.544,233.760 313.389,234.200 313.200 C 234.704 312.983,234.778 312.856,234.400 312.856 C 234.070 312.856,233.440 313.011,233.000 313.200 M60.431 317.431 C 59.728 319.551,59.223 321.356,59.308 321.441 C 59.394 321.527,60.037 319.861,60.738 317.738 C 61.440 315.616,61.945 313.811,61.861 313.728 C 61.777 313.644,61.134 315.311,60.431 317.431 M174.600 313.962 C 176.878 314.608,181.746 315.587,181.903 315.430 C 182.171 315.163,177.651 314.133,174.600 313.766 L 173.400 313.622 174.600 313.962 M229.400 314.019 C 228.842 314.271,229.085 314.307,230.200 314.138 C 231.080 314.004,231.875 313.828,231.967 313.747 C 232.310 313.444,230.168 313.671,229.400 314.019 M290.200 315.044 L 288.600 316.476 290.300 315.204 C 291.763 314.110,292.291 313.583,291.900 313.606 C 291.845 313.609,291.080 314.256,290.200 315.044 M224.900 314.848 C 224.185 315.054,223.600 315.327,223.600 315.455 C 223.600 315.582,224.095 315.552,224.700 315.387 C 225.305 315.222,226.430 314.953,227.200 314.790 C 228.556 314.501,228.562 314.492,227.400 314.482 C 226.740 314.477,225.615 314.641,224.900 314.848 M183.100 315.882 C 183.595 315.978,184.405 315.978,184.900 315.882 C 185.395 315.787,184.990 315.709,184.000 315.709 C 183.010 315.709,182.605 315.787,183.100 315.882 M220.700 315.882 C 221.195 315.978,222.005 315.978,222.500 315.882 C 222.995 315.787,222.590 315.709,221.600 315.709 C 220.610 315.709,220.205 315.787,220.700 315.882 M214.800 316.400 L 212.200 316.662 214.400 316.708 C 215.610 316.733,217.320 316.605,218.200 316.423 C 220.184 316.013,218.742 316.003,214.800 316.400 M189.500 316.689 C 190.215 316.778,191.385 316.778,192.100 316.689 C 192.815 316.601,192.230 316.528,190.800 316.528 C 189.370 316.528,188.785 316.601,189.500 316.689 M198.500 317.098 C 200.865 317.169,204.735 317.169,207.100 317.098 C 209.465 317.028,207.530 316.970,202.800 316.970 C 198.070 316.970,196.135 317.028,198.500 317.098 M280.900 321.246 C 279.537 322.119,279.095 322.706,280.300 322.043 C 281.218 321.539,282.656 320.427,282.400 320.419 C 282.290 320.416,281.615 320.788,280.900 321.246 M58.251 324.318 C 57.987 324.744,53.990 336.386,53.760 337.400 C 53.386 339.042,54.534 336.085,56.593 330.100 C 58.491 324.583,58.842 323.362,58.251 324.318 M272.400 326.200 C 271.410 326.730,270.742 327.172,270.916 327.182 C 271.341 327.206,274.400 325.634,274.400 325.392 C 274.400 325.127,274.417 325.120,272.400 326.200 M137.800 329.010 C 138.680 329.552,139.580 329.995,139.800 329.993 C 140.020 329.992,139.417 329.543,138.459 328.995 C 136.214 327.711,135.710 327.723,137.800 329.010 M264.800 330.000 C 264.030 330.422,263.580 330.766,263.800 330.766 C 264.020 330.766,264.830 330.422,265.600 330.000 C 266.370 329.578,266.820 329.234,266.600 329.234 C 266.380 329.234,265.570 329.578,264.800 330.000 M111.675 331.873 C 110.726 332.209,110.021 332.554,110.107 332.641 C 110.290 332.823,114.000 331.605,114.000 331.362 C 114.000 331.112,113.545 331.212,111.675 331.873 M145.600 332.600 C 146.150 332.914,146.780 333.172,147.000 333.172 C 147.220 333.172,146.950 332.914,146.400 332.600 C 145.850 332.286,145.220 332.028,145.000 332.028 C 144.780 332.028,145.050 332.286,145.600 332.600 M253.600 334.600 C 252.294 335.347,252.751 335.355,254.454 334.616 C 255.194 334.294,255.530 334.031,255.200 334.030 C 254.870 334.029,254.150 334.286,253.600 334.600 M152.400 335.133 C 152.730 335.336,153.450 335.624,154.000 335.771 C 154.695 335.957,154.817 335.925,154.400 335.667 C 154.070 335.464,153.350 335.176,152.800 335.029 C 152.105 334.843,151.983 334.875,152.400 335.133 M52.036 342.436 C 51.766 343.339,51.618 344.152,51.708 344.242 C 51.798 344.332,52.093 343.666,52.364 342.764 C 52.634 341.861,52.782 341.048,52.692 340.958 C 52.602 340.868,52.307 341.534,52.036 342.436 M179.905 342.283 C 180.402 342.379,181.122 342.375,181.505 342.275 C 181.887 342.175,181.480 342.096,180.600 342.101 C 179.720 342.105,179.407 342.187,179.905 342.283 M223.905 342.283 C 224.402 342.379,225.122 342.375,225.505 342.275 C 225.887 342.175,225.480 342.096,224.600 342.101 C 223.720 342.105,223.407 342.187,223.905 342.283 M190.700 343.493 C 191.635 343.577,193.165 343.577,194.100 343.493 C 195.035 343.409,194.270 343.340,192.400 343.340 C 190.530 343.340,189.765 343.409,190.700 343.493 M211.700 343.491 C 212.525 343.578,213.875 343.578,214.700 343.491 C 215.525 343.405,214.850 343.334,213.200 343.334 C 211.550 343.334,210.875 343.405,211.700 343.491 M199.300 343.898 C 201.225 343.971,204.375 343.971,206.300 343.898 C 208.225 343.825,206.650 343.765,202.800 343.765 C 198.950 343.765,197.375 343.825,199.300 343.898 M50.882 345.887 C 49.400 349.760,49.289 351.242,50.487 351.168 C 50.889 351.144,50.892 351.093,50.500 350.935 C 49.802 350.653,49.874 349.733,50.793 347.220 C 51.229 346.028,51.523 344.989,51.446 344.913 C 51.370 344.837,51.116 345.275,50.882 345.887 M57.200 349.414 C 55.770 349.918,54.780 350.344,55.000 350.361 C 55.574 350.405,59.078 349.311,59.903 348.830 C 60.969 348.209,60.064 348.405,57.200 349.414 " stroke="none" fill="#3ca92c" fill-rule="evenodd"></path></g></svg>