<?xml version="1.0" standalone="no"?>
<!DOCTYPE svg PUBLIC "-//W3C//DTD SVG 20010904//EN"
 "http://www.w3.org/TR/2001/REC-SVG-20010904/DTD/svg10.dtd">
<svg version="1.0" xmlns="http://www.w3.org/2000/svg"
 width="547.000000pt" height="547.000000pt" viewBox="0 0 547.000000 547.000000"
 preserveAspectRatio="xMidYMid meet">
<metadata>
Created by potrace 1.14, written by Peter Selinger 2001-2017
</metadata>
<g transform="translate(0.000000,547.000000) scale(0.100000,-0.100000)"
fill="#000000" stroke="none">
<path d="M2368 4855 c-2 -2 -48 -6 -103 -10 -55 -4 -109 -9 -120 -11 -11 -2
-39 -7 -63 -10 -36 -5 -107 -21 -212 -48 -70 -18 -276 -114 -343 -160 -21 -14
-42 -26 -47 -26 -6 0 -10 -4 -10 -8 0 -4 -12 -15 -28 -24 -35 -21 -138 -126
-164 -167 l-20 -31 29 0 c39 0 149 -33 203 -60 94 -48 269 -209 292 -270 6
-14 7 -60 3 -106 -9 -106 0 -117 94 -112 74 3 90 -9 41 -33 l-32 -16 31 -13
31 -12 1 -117 c1 -123 3 -151 19 -219 6 -24 8 -47 5 -51 -2 -5 -26 -19 -52
-31 -49 -23 -73 -46 -68 -65 2 -5 6 -32 9 -60 10 -96 74 -282 124 -364 30 -48
30 -50 17 -100 -13 -49 -14 -281 -2 -343 21 -108 81 -204 165 -266 150 -111
255 -138 569 -146 95 -2 117 -7 119 -24 0 -4 4 -23 8 -42 9 -42 6 -54 -14 -57
-56 -8 -83 -19 -145 -62 -66 -45 -70 -50 -70 -85 0 -37 -1 -38 -66 -66 -36
-15 -117 -45 -180 -66 -147 -48 -187 -72 -241 -144 -43 -57 -111 -254 -142
-410 -3 -14 -8 -36 -11 -50 -6 -26 -30 -174 -40 -247 -6 -41 -5 -43 35 -65 38
-21 41 -26 36 -58 -3 -19 -7 -42 -9 -50 -2 -8 -7 -33 -12 -55 -4 -22 -9 -47
-11 -55 -26 -113 -42 -189 -50 -246 l-6 -41 201 0 c110 1 201 2 201 4 0 3 -11
19 -25 37 -14 18 -25 36 -25 39 0 3 -5 18 -12 34 -17 42 -18 51 -19 143 -2
132 -2 132 22 128 20 -3 20 2 24 162 4 160 12 281 21 289 2 2 4 -25 5 -60 0
-79 9 -211 25 -369 1 -19 5 -62 9 -95 3 -33 8 -78 10 -100 3 -22 8 -56 10 -75
10 -85 17 -125 22 -130 2 -3 86 -6 186 -7 100 -1 190 -2 199 -2 14 -1 16 -11
16 -56 -2 -87 5 -90 170 -89 75 1 148 4 162 7 14 3 38 6 53 6 l28 1 -3 67 -3
67 165 -1 166 0 -1 37 c-2 80 15 235 36 345 6 28 12 61 15 75 2 14 7 32 11 40
3 8 8 24 10 35 6 32 42 145 52 162 5 10 8 -14 7 -66 -1 -44 0 -100 3 -124 6
-41 7 -42 46 -43 38 0 40 -2 48 -40 5 -21 6 -82 4 -134 -6 -109 -23 -154 -92
-236 l-44 -50 212 -1 c117 0 220 4 230 9 25 13 66 99 70 150 3 24 -4 72 -14
108 -9 36 -25 92 -34 125 -22 78 -25 90 -38 151 l-10 52 72 72 c40 40 69 75
63 79 -18 11 -121 230 -221 471 -61 146 -81 179 -126 205 -23 14 -50 25 -60
25 -75 0 -238 64 -317 125 -26 19 -51 35 -55 35 -5 0 -9 10 -10 22 -3 41 -102
108 -160 108 -18 0 -14 32 12 97 1 1 26 5 56 8 171 19 348 65 454 118 108 54
180 119 241 218 61 100 65 124 64 332 0 177 1 187 17 179 33 -17 124 -15 158
3 68 37 103 127 101 256 -1 66 -7 93 -24 127 -22 41 -22 46 -8 90 8 26 20 72
26 103 8 42 19 63 41 83 23 21 29 33 25 54 -6 37 -17 62 -26 62 -5 0 -8 53 -8
118 0 192 -14 258 -85 395 -41 80 -103 146 -141 149 -12 1 -40 1 -63 0 -38 -1
-43 1 -44 21 -1 12 -1 26 0 30 3 20 -33 136 -55 177 -53 97 -159 188 -295 254
-73 35 -204 74 -214 64 -3 -3 17 -45 45 -94 27 -48 46 -92 41 -97 -4 -4 -46
12 -92 36 -163 86 -401 147 -679 173 -65 6 -417 13 -422 9z m-261 -1737 c0
-13 -1 -17 -4 -10 -3 6 -9 10 -14 6 -5 -3 -6 -11 -2 -17 10 -16 11 -77 1 -77
-4 0 -5 -7 -2 -15 4 -8 1 -15 -6 -15 -9 0 -10 -3 -1 -13 6 -8 7 -17 3 -21 -4
-4 -8 -12 -8 -17 -1 -5 -3 -11 -4 -14 -1 -3 -3 -8 -4 -12 -1 -5 -7 -18 -14
-29 -6 -12 -8 -24 -4 -28 3 -4 -2 -4 -11 0 -10 4 -16 12 -14 18 3 7 -4 23 -14
37 -22 29 -24 43 -5 36 8 -3 19 0 25 7 15 18 1 29 -17 13 -12 -9 -16 -9 -19 1
-3 6 -10 9 -16 6 -7 -3 4 10 24 29 27 25 34 38 26 46 -11 11 -9 12 13 15 6 0
10 5 9 9 -1 7 50 67 56 67 0 0 1 -10 2 -22z"/>
<path d="M2069 3096 c-1 -3 -2 -9 -3 -13 -3 -19 -18 -33 -29 -26 -7 4 -6 0 1
-10 12 -14 12 -19 -2 -32 -9 -9 -16 -13 -16 -9 0 3 -7 1 -15 -6 -8 -7 -12 -16
-9 -22 3 -5 11 -5 19 2 9 7 16 6 24 -3 8 -11 7 -18 -7 -31 -10 -9 -22 -13 -27
-9 -4 5 0 -5 10 -20 17 -26 40 -32 40 -11 0 5 4 15 8 22 5 6 5 12 1 12 -3 0
-1 6 5 14 8 10 9 16 1 21 -6 3 -7 12 -3 18 16 25 24 95 12 103 -5 3 -10 3 -10
0z m5 -48 c-3 -13 -6 -27 -7 -33 -2 -5 -6 -15 -10 -22 -4 -6 -3 -15 3 -18 8
-5 7 -11 -1 -21 -6 -8 -8 -14 -4 -14 4 0 2 -6 -4 -13 -6 -8 -8 -17 -4 -20 3
-4 2 -7 -4 -7 -20 0 -22 28 -2 46 17 16 18 19 4 34 -14 15 -14 18 0 30 9 7 14
19 11 25 -2 7 1 18 7 24 15 15 17 14 11 -11z"/>
</g>
</svg>
